<svg width="480" height="400" viewBox="0 0 480 400" fill="none" xmlns="http://www.w3.org/2000/svg">
<path d="M385.635 439.575C385.03 438.271 385.948 436.934 386.959 436.645C409.344 430.258 431.367 422.92 453.121 414.979C474.959 407.007 496.53 398.425 517.978 389.591C522.062 387.91 526.14 386.218 530.214 384.519C532.254 383.67 534.293 382.818 536.329 381.967C538.937 380.876 542.18 378.686 545.117 378.582C549.055 378.441 553.676 387.408 555.806 390.558C559.378 395.834 562.481 401.428 565.258 407.149C570.896 418.756 575.198 430.864 579.475 442.915C580.845 446.776 582.213 450.638 583.628 454.488C594.825 484.942 605.398 515.619 618.449 545.508C625.369 561.351 633.005 577.002 641.782 591.994C650.596 607.052 661.093 621.633 676.953 627.469C706.566 638.366 729.947 617.873 744.058 595.48C745.05 593.905 747.646 594.738 748.634 596.372C755.398 607.537 768.125 615.202 769.243 629.037C770.19 640.768 763.889 652.512 758.523 661.118C745.577 681.873 724.303 696.015 699.841 698.274C676.302 700.449 650.604 692.904 629.002 677.284C605.401 660.216 586.492 635.994 568.276 612.549C581.68 645.216 596.615 676.916 615.296 707.584C630.99 733.353 647.714 758.77 667.399 781.495C681.015 797.211 707.83 814.789 686.246 831.071C679.736 835.979 666.694 842.124 657.918 835.141C647.571 826.905 638.386 814.571 629.527 804.501C620.677 794.44 611.406 784.359 603.38 773.496C515.705 673.717 441.803 560.501 385.635 439.575Z" fill="#141010"/>
<path d="M582.276 740.724C596.391 757.795 610.793 774.596 625.372 791.216C631.201 797.861 640.377 811.371 649.645 821.276C655.059 827.062 660.505 831.618 665.337 832.857C675.546 835.471 682.646 820.262 688.332 814.444C661.821 780.815 634.367 749.944 611.706 712.929C600.753 695.038 590.702 676.588 581.758 657.667C577.31 648.253 573.129 638.729 569.256 629.103C566.15 621.383 563.569 606.468 558.612 600.08C548.508 587.06 538.411 574.03 528.312 561.006C521.95 552.801 515.914 543.857 509.035 536.15C501.813 528.054 489.899 530.242 480.724 529.618C476.664 529.34 475.987 522.453 480.064 522.736C485.027 523.081 489.986 523.425 494.949 523.769C498.089 523.986 503.916 523.197 506.92 524.708C511.575 527.047 516.048 535.537 519.253 539.679C527.893 550.84 536.529 562.001 545.169 573.162C562.576 595.654 579.092 619.172 597.585 640.692C608.503 653.397 620.416 665.296 633.802 674.659C662.973 695.064 697.785 699.147 725.075 684.817C739.474 677.254 751.257 664.922 758.6 649.524C762.624 641.084 767.547 629.929 761.027 619.622C757.068 613.36 751.287 608.766 746.699 602.988C733.879 622.307 715.518 637.807 690.681 636.104C661.751 634.12 644.588 608.489 630.552 582.142C613.786 550.67 601.243 517.43 589.221 484.254C582.995 467.07 576.891 449.85 570.334 432.758C563.537 415.031 556.84 396.595 543.996 382.193C543.913 382.271 543.847 382.359 543.728 382.422C495.592 407.266 443.424 425.476 390.97 440.811C390.595 440.921 437.92 531.769 442.587 539.921C461.575 573.104 481.92 605.533 503.533 637.047C528.134 672.918 554.671 707.339 582.276 740.724Z" fill="#FFFDF0"/>
<path d="M405.643 490.189C389.629 455.351 373.657 420.492 357.698 385.627C349.453 367.613 340.636 349.745 333.098 331.433C327.904 318.816 323.566 305.002 325.224 291.449C327.037 276.631 336.472 267.886 348.486 260.542C367.797 248.732 387.876 237.876 408.444 228.419C425.278 220.731 444.782 216.135 462.673 223.085C474.334 227.614 482.698 236.884 489.779 247.14C500.019 261.974 509.406 277.537 518.743 292.954C537.389 323.745 555.045 355.234 569.341 388.269C581.17 415.596 597.624 450.47 591.298 480.363C579.465 536.292 514.353 571.885 461.121 550.651C432.951 539.417 418.087 517.264 405.643 490.189Z" fill="#141010"/>
<path d="M436.79 528.228C482.581 571.14 550.785 547.662 577.488 498.896C592.97 470.621 583.524 441.986 572.811 412.677C562.083 383.32 548.311 355.12 533.058 327.799C524.324 312.154 514.948 296.882 505.379 281.737C496.796 268.149 488.695 253.049 477.9 241.11C463.985 225.723 442.225 223.994 423.229 229.258C408.732 233.274 396.086 242.452 382.54 248.734C365.573 256.603 343.882 263.718 334.91 281.624C323.003 305.395 342.304 336.71 352.324 358.607C365.871 388.216 379.434 417.816 392.946 447.44C399.252 461.266 405.535 475.103 411.865 488.918C418.417 503.209 425.158 517.327 436.79 528.228Z" fill="#FFDC5F"/>
<path d="M443.033 627.02C442.957 626.705 442.883 626.377 442.812 626.037C440.141 613.141 437.102 600.491 433.967 587.683C430.583 573.857 427.093 560.053 423.442 546.284C416.477 519.989 409.902 493.794 401.075 467.976C397.832 458.485 405.343 458.71 412.07 456.023C419.566 453.03 427.055 450.018 434.538 446.999C448.855 441.221 463.161 435.415 477.487 429.659C492.051 423.809 506.879 418.55 521.101 411.924C528.496 408.476 535.73 404.675 542.582 400.249C545.403 398.426 547.783 395.887 550.474 393.874C553.764 391.412 559.161 387.847 563.395 390.807C565.979 392.612 567.987 397.998 569.626 400.713C572.135 404.877 574.649 409.041 577.159 413.204C587.42 430.317 597.62 447.537 608.493 464.207C616.79 476.93 625.582 489.312 634.422 501.652C638.948 507.967 643.491 514.272 647.99 520.611C651.018 524.872 656.679 528.509 657.98 533.814C659.437 539.76 654.477 545.008 650.705 548.59C640.374 558.388 630.166 568.499 618.857 577.143C599.351 592.056 577.74 604.049 555.279 613.924C537.096 621.92 518.031 628.314 498.453 632.369C488.433 634.444 478.191 635.908 467.823 635.78C462.78 635.717 457.752 636.36 452.688 635.636C446.723 634.778 444.36 632.512 443.033 627.02Z" fill="#141010"/>
<path d="M558.668 606.723C595.347 589.666 625.042 565.093 653.592 536.758C636.031 515.298 620.518 491.584 605.346 468.387C589.247 443.769 573.978 418.595 560.05 392.688C559.962 392.807 559.858 392.922 559.734 393.032C538.412 411.715 511.447 421.218 485.459 431.609C458.376 442.437 431.223 453.112 404.194 464.06C413.652 491.238 421.283 519.07 428.713 546.792C432.401 560.551 435.94 574.343 439.286 588.175C441.246 596.283 443.759 604.277 445.552 612.424C446.421 616.378 445.694 621.52 447.703 625.179C450.106 629.554 454.423 628.987 458.667 629.325C470.401 630.262 482.046 629.75 493.533 627.953C516.311 624.392 538.002 616.332 558.668 606.723Z" fill="#102A71"/>
<path d="M470.566 125.758C456.764 119.499 459.645 104.367 458.416 92.164C458.25 90.527 458.013 88.8279 457.112 87.4486C455.413 84.8465 451.84 84.1517 448.765 84.6006C442.688 85.4908 437.249 88.4654 431.375 89.9844C421.754 92.472 408.57 91.317 405.888 79.6765C404.939 75.5585 405.814 71.0313 404.021 67.2066C401.594 62.031 394.188 60.3702 389.17 62.8372C385.081 64.8466 386.254 73.241 381.214 76.4267C377.005 79.091 371.425 78.9693 366.768 77.781C356.818 75.2448 347.391 65.9196 352.663 55.2014C352.735 55.0551 352.842 54.945 352.948 54.8325C353.892 52.894 355.441 51.3758 357.372 50.2682C357.067 49.9482 356.922 49.4926 357.144 49.0217C363.864 34.709 376.853 24.0934 392.155 20.0573C399.254 18.1864 407.759 17.7804 413.504 23.1626C415.681 25.2025 416.63 28.335 418.751 30.3103C426.007 37.0789 434.094 29.1131 440.546 25.9475C454.206 19.2467 474.94 12.9691 489.064 21.6251C493.988 24.6449 497.096 29.1926 498.477 34.7572C499.754 39.8929 497.981 47.6651 503.265 50.8758C510.089 55.021 515.097 56.2069 518.313 64.6569C524.11 79.8892 521.916 97.9029 511.89 110.882C502.618 122.888 485.664 132.604 470.566 125.758Z" fill="#141010"/>
<path d="M356.051 55.4367C356.078 55.6323 356.073 55.8437 356.011 56.0835C354.467 62.0057 355.634 67.7968 360.8 71.5928C366.982 76.1332 378.828 77.3326 382.447 69.2606C389.891 52.6718 363.016 46.3188 356.051 55.4367Z" fill="#FFDC5F"/>
<path d="M494.372 120.565C511.407 112.073 520.03 92.6046 516.999 74.0918C516.112 68.6869 513.75 63.287 509.885 59.3463C505.959 55.34 499.23 54.7774 496.756 49.4905C492.967 41.3971 496.905 32.5549 488.603 26.1964C472.434 13.8183 447.818 26.8852 432.834 34.7744C428.343 37.139 423.731 38.9477 419.03 36.0308C411.573 31.4035 412.35 22.9323 401.126 22.6837C383.991 22.3076 368.783 35.4288 359.962 49.0984C369.328 45.8527 383.888 49.9481 386.647 60.8469C392.113 58.6262 398.708 57.169 403.626 61.1513C410.533 66.7439 405.947 76.6764 411.021 83.1601C423.198 98.7225 452.298 68.7171 460.759 86.5297C464.02 93.3891 461.401 102.643 462.98 109.972C466.219 125.015 482.565 126.452 494.372 120.565Z" fill="#141010"/>
<path d="M292.615 225.254C289.642 219.208 287.946 209.953 292.855 204.369C293.643 203.474 294.548 202.777 295.51 202.268C285.243 192.067 276.492 179.587 270.797 166.325C267.618 158.92 263.339 143.048 270.418 136.143C260.955 129.778 258.119 114.15 271.79 111.275C279.352 76.2094 318.857 55.5235 352.54 61.8532C353.398 62.0135 354.236 62.2096 355.076 62.3976C371.87 64.2522 389.74 73.9997 400.798 85.8046C416.185 102.222 420.885 124.625 425.139 145.991C425.247 146.531 425.176 146.981 424.99 147.348C431.664 148.768 436.082 155.136 437.715 161.532C440.931 174.126 431.311 190.183 417.985 186.456C415.728 197.556 410.285 207.475 415.726 219.095C418.695 225.438 422.925 230.402 415.834 235.159C409.28 239.557 402.302 243.256 395.307 246.894C392.249 248.485 379.443 257.559 376.539 255.487C375.834 254.984 375.392 254.2 374.977 253.441C371.706 247.495 368.742 241.344 363.596 236.735C357.218 230.935 350.403 230.925 342.354 230.967C335.977 231.001 330.062 229.76 324.62 227.231C319.184 244.098 298.979 238.196 292.615 225.254Z" fill="#141010"/>
<path d="M327.808 224.372C339.02 229.035 351.439 223.575 362.122 229.964C369.795 234.555 374.536 242.604 378.608 250.383C378.508 250.191 411.706 231.57 414.675 229.776C414.125 230.109 406.92 211.642 407.001 209.361C407.3 200.991 413.104 193.629 414.866 185.234C414.581 185.093 414.297 184.959 414.008 184.8C412.948 184.206 412.525 182.949 412.93 181.815C414.123 178.458 418.212 181.438 420.269 181.926C423.505 182.692 426.929 181.2 429.315 179.064C432.523 176.194 434.398 171.849 434.44 167.56C434.485 162.678 432.844 157.142 429.087 153.788C427.373 152.259 425.102 151.6 422.841 151.534C417.797 151.387 411.117 154.359 410.242 159.904C410.013 161.35 407.967 161.619 407.268 160.615C406.873 160.809 406.391 160.843 405.869 160.615C397.011 156.775 389.034 151.912 381.692 145.63C377.977 142.45 374.502 139.003 371.193 135.402C368.511 132.484 364.387 125.232 360.783 124.194C357.558 123.266 351.612 126.376 348.221 127.171C343.191 128.352 338.085 129.139 332.946 129.655C325.097 130.444 317.204 130.624 309.322 130.414C312.38 132.148 315.243 134.118 317.994 136.566C318.834 137.313 319.104 139.009 317.926 139.663C307.943 145.226 292.978 145.036 280.917 141.077C281.159 145.377 281.858 149.774 283.08 154.232C283.15 154.487 283.129 154.705 283.078 154.907C287.32 165.909 291.969 176.748 297.065 187.385C303.951 201.75 312.233 217.893 327.808 224.372Z" fill="#FFFDF0"/>
<path d="M283.063 154.905C283.116 154.705 283.135 154.485 283.065 154.23C281.845 149.775 281.146 145.378 280.902 141.075C292.963 145.034 307.93 145.227 317.911 139.662C319.086 139.009 318.819 137.311 317.98 136.565C315.229 134.119 312.365 132.146 309.307 130.412C317.189 130.622 325.082 130.443 332.931 129.653C338.068 129.135 343.175 128.348 348.207 127.17C351.597 126.374 357.543 123.265 360.768 124.192C364.372 125.23 368.498 132.481 371.179 135.401C374.487 139.001 377.962 142.448 381.677 145.628C386.131 149.439 390.82 152.719 395.798 155.573C389.513 154.879 383.327 153.687 377.37 151.48C371.024 149.13 366.147 145.079 360.399 141.754C353.27 137.629 345.494 141.86 337.819 142.659C335.322 142.918 332.833 143.027 330.35 143.024C331.18 144.084 331.984 145.177 332.75 146.341C334.241 148.613 333.492 152.382 330.983 153.658C318.37 160.079 300.808 161.883 284.844 159.388C284.248 157.897 283.642 156.406 283.063 154.905Z" fill="#FFFDF0"/>
<path d="M300.49 230.364C307.595 236.712 318.424 235.474 321.698 225.764C321.705 225.747 321.717 225.739 321.721 225.723C319.253 224.316 316.879 222.653 314.623 220.664C309.775 216.387 305.895 211.268 302.562 205.774C295.633 205.196 292.486 207.903 293.148 213.914C293.224 216.222 293.624 218.478 294.35 220.686C295.554 224.313 297.625 227.804 300.49 230.364Z" fill="#FFFDF0"/>
<path d="M345.302 152.521C344.782 150.249 348.577 149.23 349.401 151.255C353.009 152.989 354.573 157.258 354.325 161.04C354.223 162.608 351.899 163.576 350.76 162.428C347.957 159.61 346.189 156.393 345.302 152.521Z" fill="#141010"/>
<path d="M311.204 175.914C310.192 173.507 313.355 171.869 314.993 173.178C316.255 173.799 317.371 175.003 318.178 175.971C319.561 177.63 320.199 179.536 320.013 181.685C319.873 183.321 317.71 184.047 316.511 183.048C314.206 181.124 312.372 178.687 311.204 175.914Z" fill="#141010"/>
<path d="M296.027 163.044C295.315 161.341 296.625 159.175 297.736 157.884C299.001 156.41 300.71 155.314 302.441 154.469C303.637 153.885 304.733 155.874 303.564 156.554C302.074 157.423 301.103 158.529 300.25 160.022C299.545 161.254 299.305 162.804 298.15 163.68C297.405 164.242 296.37 163.858 296.027 163.044Z" fill="#141010"/>
<path d="M335.092 137.361C335.749 135.553 338.066 134.612 339.744 133.909C341.745 133.073 343.836 132.688 345.995 132.632C347.772 132.583 348.069 135.152 346.274 135.401C344.419 135.658 342.599 136.178 340.904 136.988C339.384 137.715 338.197 139.076 336.505 139.303C335.412 139.447 334.753 138.3 335.092 137.361Z" fill="#141010"/>
<path d="M326.421 183.185C326.371 181.844 326.945 181.086 327.577 179.964C329.982 175.692 327.125 172.915 323.852 170.224C322.486 169.101 324.164 166.998 325.562 168.077C328.137 170.062 330.853 172.296 331.62 175.622C331.906 176.864 331.932 178.183 331.558 179.407C331.41 179.887 330.895 180.455 330.854 180.932C330.685 182.917 332.36 185.048 333.826 186.137C335.182 187.142 334.075 189.071 332.591 188.948C329.722 188.706 326.542 186.318 326.421 183.185Z" fill="#141010"/>
<path d="M341.216 191.217C341.257 190.976 341.341 190.739 341.548 190.524C344.203 187.773 346.914 185.11 349.679 182.467C351.412 180.812 353.211 178.751 355.83 179.464C358.259 180.125 360.622 183.51 361.914 185.495C363.478 187.899 364.551 190.617 364.372 193.529C364.054 198.698 359.908 201.981 354.907 201.882C349.052 201.764 343.422 198.467 340.32 193.547C339.666 192.523 340.335 191.467 341.216 191.217Z" fill="#141010"/>
<path d="M137.764 365.274C146.029 353.792 161.653 354.411 173.923 357.188C192.327 361.354 209.906 366.085 228.977 363.373C249.086 360.512 268.112 350.896 282.383 336.441C297.217 321.414 304.665 301.069 317.805 284.702C331.317 267.875 348.568 254.436 368.241 245.581C369.335 245.087 370.386 245.625 370.876 246.427C371.282 246.761 371.564 247.262 371.599 247.936C375.014 312.282 397.658 372.055 420.066 431.744C428.223 453.476 443.322 478.624 427.464 500.264C413.816 518.895 385.886 523.548 364.13 521.065C351.336 519.602 348.328 508.134 350.831 496.802C352.729 488.21 355.447 480.849 354.599 471.818C353.653 461.707 350.84 451.57 348.502 441.714C345.502 429.064 342.322 416.462 339.39 403.825C307.986 418.863 273.876 428.714 239.001 430.535C207.573 432.174 166.289 430.848 144.481 404.514C136.041 394.318 129.044 377.39 137.764 365.274Z" fill="#141010"/>
<path d="M177.832 418.588C194.009 423.734 212.069 424.856 228.957 424.333C267.03 423.16 303.99 415.344 338.079 398.08C333.274 376.709 329.378 355.19 328.523 333.117C328.443 331.054 331.574 331.009 331.715 333.055C334.015 366.7 343.6 399.113 351.876 431.636C355.429 445.598 360.15 460.245 360.742 474.733C361.283 487.955 348.243 516.602 370.957 516.56C393.513 516.516 422.038 511.247 428.719 486.068C432.262 472.715 424.357 458.333 419.779 446.081C414.761 432.656 409.627 419.274 404.742 405.797C386.563 355.645 369.728 304.046 367.479 250.354C353.027 258.486 339.819 268.363 328.518 280.599C316.636 293.463 309.166 308.549 299.901 323.181C284.323 347.782 258.755 364.841 229.836 369.058C215.673 371.122 201.286 369.634 187.349 366.725C172.223 363.568 140.724 352.79 140.042 378.793C139.515 398.778 161.187 413.292 177.832 418.588Z" fill="#FFFDF0"/>
<path d="M206.729 423.873C226.951 419.499 246.8 413.547 266.155 405.841C287.705 397.258 316.152 386.049 331.948 366.649C333.613 377.19 335.733 387.654 338.077 398.081C303.986 415.343 267.027 423.161 228.954 424.335C221.683 424.559 214.194 424.447 206.729 423.873Z" fill="#FFFDF0"/>
<path d="M518.283 426.45C510.46 413.113 502.646 399.77 494.941 386.364C464.719 333.785 435.27 280.224 415.452 222.718C415.29 222.252 415.345 221.843 415.526 221.513C415.224 220.38 415.611 219.131 417.023 218.816C458.041 209.632 492.323 227.565 525.075 249.747C524.385 249.279 523.851 247.419 523.409 246.68C520.533 241.861 519.974 235.9 522.9 230.913C524.772 225.766 528.714 221.332 534.168 218.174C554.742 206.263 577.614 222.552 592.275 236.381C616.271 259.018 637.871 296.76 630.571 330.899C624.955 357.159 604.156 364.687 580.653 363.829C587.799 369.371 595.185 374.062 604.1 376.769C610.81 378.807 617.729 379.565 621.997 385.788C634.786 404.439 618.241 419.876 602.45 428.772C591.82 434.76 580.457 439.168 569.009 443.306C559.799 446.634 550 450.61 540.037 448.506C528.94 446.164 523.519 435.377 518.283 426.45Z" fill="#141010"/>
<path d="M534.494 439.807C534.833 440.048 535.177 440.276 535.525 440.491C545.137 446.456 556.541 441.008 566.071 437.812C580.096 433.109 594.796 427.734 607.392 419.869C618.212 413.122 625.269 402.894 619.451 390.152C615.833 382.227 606.638 382.337 599.653 379.858C590.196 376.504 581.282 371.005 574.644 363.438C552.638 361.408 529.233 353 514.205 346.303C511.248 344.986 513.325 340.398 516.266 341.729C547.674 355.939 621.343 379.35 627.03 324.641C628.555 309.951 625.548 295.136 619.699 281.66C613.681 267.795 604.782 255.231 594.271 244.412C589.478 239.479 584.326 234.894 578.861 230.716C576.207 228.69 573.486 226.712 570.661 224.928C566.242 222.136 562.287 219.667 557.119 218.568C552.235 217.528 547.107 217.301 542.266 218.685C537.175 220.141 532.415 222.98 529.423 227.44C526.964 231.104 525.568 235.824 526.024 240.243C526.569 245.549 529.864 249.978 532.3 254.542C535.273 260.107 538.058 265.83 540.57 271.616C544.349 280.315 547.584 289.249 550.184 298.37C550.73 300.288 551.25 302.215 551.737 304.148C552.176 305.881 552.324 308.077 553.058 309.698C553.612 312.196 549.324 313.174 548.643 310.682C543.63 292.309 537.348 274.691 529.138 257.755C528.516 257.874 527.839 257.768 527.192 257.315C511.771 246.485 496.108 235.605 478.585 228.424C458.408 220.154 440.09 222.026 419.076 223.472C439.819 274.176 464.625 322.927 491.802 370.468C498.554 382.28 505.435 394.017 512.345 405.736C518.273 415.79 524.603 432.808 534.494 439.807Z" fill="#FFFDF0"/>
<path d="M523.302 227.073C519.921 223.202 515.741 219.789 512.372 215.836C507.439 211.846 504.526 206.266 502.966 199.849C501.556 194.053 498.9 183.064 502.978 177.766C504.543 175.736 506.668 174.957 508.827 175.065C505.143 165.86 502.664 156.108 501.059 146.358C500.169 140.942 497.998 131.521 504.168 128.162C513.592 123.034 519.215 145.475 521.747 159.917C523.068 153.344 525.063 146.842 527.854 140.888C529.958 136.403 534.775 125.655 540.938 125.78C545.027 125.864 546.923 130.054 546.986 133.533C547.07 138.066 544.946 143.08 543.822 147.411C542.341 153.113 540.785 158.792 539.222 164.472C544.132 163.856 548.847 166.639 549.999 171.307C567.357 167.657 572.695 215.417 555.078 225.432C555.101 225.548 555.153 225.639 555.16 225.772C555.461 234.323 542.902 238.863 535.779 236.803C530.451 235.262 526.814 231.096 523.302 227.073Z" fill="#141010"/>
<path d="M72.1001 368.398C72.7536 366.975 74.0024 365.911 75.6504 365.12C70.5925 362.951 66.2252 359.735 62.5756 355.358C59.5611 351.746 55.4685 345.764 59.3615 341.261C61.2035 339.129 63.6652 338.522 66.1425 338.791C62.1657 332.153 57.9905 321.949 66.1441 319.099C67.0259 318.789 67.8347 318.747 68.5917 318.849C67.3555 315.33 66.832 311.517 69.2413 308.382C72.0247 304.762 76.6606 304.694 80.3333 306.97C87.0925 311.161 88.6544 321.193 94.8797 326.426C105.081 335.001 119.723 335.625 131.918 331.684C131.259 329.866 130.614 328.043 129.995 326.207C128.815 322.713 126.48 317.621 128.547 313.902C131.862 307.928 138.115 312.292 141.555 315.682C149.815 323.825 153.167 336.366 155.059 347.449C156.465 355.691 159.534 368.542 152.618 375.019C152.558 375.073 152.495 375.088 152.435 375.135C141.15 391.166 102.501 385.988 88.4717 382.749C83.1856 381.534 68.2062 376.881 72.1001 368.398Z" fill="#141010"/>
<path d="M103.587 381.22C118.541 383.049 143.388 384.096 151.747 368.792C153.639 362.323 151.224 351.993 150.212 347.1C148.853 340.513 146.824 333.721 143.933 327.622C139.144 317.522 133.614 315.471 133.219 320.027C133.266 324.238 139.095 336.47 141.184 342.235C142.054 344.639 138.124 346.435 137.005 344.07C135.705 341.327 134.529 338.528 133.425 335.702C122.832 339.146 111.811 340.126 101.372 335.394C96.2222 333.059 91.4628 329.531 87.8796 325.134C86.4807 323.416 85.3346 321.618 84.2341 319.711C83.3132 317.773 82.3593 315.847 81.3805 313.937C80.6266 312.468 78.1271 310.937 76.5257 310.629C75.2413 310.38 74.0232 310.772 73.1467 311.745C72.2236 312.771 71.827 314.211 71.7323 315.563C71.5285 318.482 72.9275 321.142 74.4549 323.524C75.9534 325.859 77.458 328.204 79.1108 330.427C82.4955 334.986 86.7492 339.07 92.54 340.103C92.6583 340.123 92.7782 340.145 92.8975 340.161C95.8606 340.626 94.7461 345.136 91.8077 344.683C85.304 343.682 80.2317 339.155 76.3956 334.064C74.985 332.192 73.7332 330.216 72.455 328.253C71.8246 327.266 71.1843 326.285 70.534 325.311C69.1152 325.161 66.6196 324.924 65.7835 326.434C65.4815 326.981 65.5105 327.644 65.5791 328.266C66.383 335.439 71.6033 340.981 77.1878 345.059C79.8745 347.02 82.7415 348.912 85.8012 350.235C89.2743 351.736 92.9401 352.713 96.4932 353.998C98.394 354.684 98.49 358.033 96.0711 357.865C87.0793 357.238 79.2531 351.934 72.3822 346.551C69.9548 344.651 60.7059 338.826 62.234 347.565C62.7096 350.292 65.8293 353.477 67.6171 355.362C70.9896 358.916 75.0962 361.7 79.4647 363.882C88.681 361.926 103.307 364.338 108.276 364.922C110.808 365.219 110.298 369.346 107.797 369.328C103.312 369.296 99.0568 368.766 94.583 368.427C91.6895 368.21 80.782 366.738 78.8948 369.11C72.1427 377.591 99.9337 380.773 103.587 381.22Z" fill="#FFFDF0"/>
<path d="M40.2019 290.755C35.2595 280.808 42.4319 276.066 50.2487 270.458C55.767 266.498 68.9855 252.909 76.6817 256.87C79.5513 258.347 83.3089 262.945 85.3219 265.445C88.3724 269.233 91.2521 272.893 94.2708 276.708C100.137 284.114 105.543 291.774 110.878 300.024C119.823 313.863 133.292 327.568 140.341 342.559C144.83 352.107 130.417 357.967 124.157 362.859C118.074 367.613 109.975 379.015 102.34 373.206C95.7695 368.209 89.8447 359.621 84.5093 353.341C78.7457 346.557 73.1641 339.617 67.814 332.502C57.963 319.398 47.5151 305.468 40.2019 290.755Z" fill="#141010"/>
<path d="M123.459 358.873C126.538 356.475 135.277 351.984 136.574 348.642C138.73 343.082 130.663 334.175 127.852 330.021C124.658 325.304 121.424 320.611 118.139 315.957C111.315 306.289 104.316 296.75 97.2494 287.262C93.7165 282.515 90.1677 277.783 86.6164 273.051C84.1321 269.741 80.5826 262.504 76.5088 261.028C71.671 259.276 66.2768 263.338 62.5188 265.884C60.5277 267.234 58.5291 268.572 56.5304 269.909C55.1752 270.816 47.0955 275.445 47.2645 277.155C48.0854 285.498 57.474 295.538 61.9294 302.164C67.1972 309.99 72.6398 317.699 78.2526 325.283C89.0843 339.92 100.562 354.045 112.553 367.74C116.363 365.2 120.044 361.531 123.459 358.873Z" fill="#FFFDF0"/>
<path d="M121.019 354.962C123.737 352.842 131.518 348.95 132.596 345.91C134.392 340.854 126.85 332.436 124.194 328.537C121.175 324.106 118.123 319.703 115.022 315.329C108.586 306.246 101.991 297.277 95.3387 288.35C92.0119 283.885 88.6731 279.435 85.3303 274.983C82.9923 271.868 79.5809 265.114 75.8545 263.641C71.4315 261.896 66.6638 265.483 63.336 267.725C61.571 268.913 59.8008 270.087 58.0307 271.261C56.8273 272.058 49.6513 276.093 49.8498 277.673C50.8242 285.371 59.59 294.868 63.8053 301.089C68.7872 308.436 73.9216 315.68 79.2063 322.812C89.4071 336.578 100.176 349.891 111.402 362.826C114.773 360.588 118 357.312 121.019 354.962Z" fill="#141010"/>
<path d="M81.0625 344.004C84.6496 348.464 88.3383 352.838 92.1174 357.136C94.2152 359.522 96.3354 361.894 98.4978 364.224C102.313 368.329 103.576 372.087 109.246 369.612C95.348 353.626 82.1766 337.042 69.8951 319.781C64.0626 311.585 58.3577 303.273 52.9789 294.772C50.0965 290.217 46.3558 285.584 45.1982 280.324C42.141 287.383 47.3515 295.877 51.2265 302.056C54.265 306.906 57.4091 311.688 60.6339 316.417C67.0835 325.875 73.8866 335.083 81.0625 344.004Z" fill="#FFFDF0"/>
</svg>
