<svg width="289" height="297" viewBox="0 0 289 297" fill="none" xmlns="http://www.w3.org/2000/svg">
<g clip-path="url(#clip0_2_2)">
<path d="M67.9055 225.9C47.2281 220.013 43.3157 199.854 57.8944 194.598C193.45 145.725 22.9265 154.111 146.671 76.9181C236.234 21.0477 259.843 75.3968 228.414 120.698C208.432 149.501 205.877 165.929 216.438 182.829C233.851 232.097 185.635 242.085 157.737 225.997C129.839 209.909 112.546 238.609 67.9055 225.9Z" fill="url(#paint0_linear_2_2)"/>
<g clip-path="url(#clip1_2_2)">
<path d="M169.594 98.4514C169.853 96.4435 167.786 95.8858 166.266 96.5722C164.902 97.1876 163.782 98.6729 162.746 99.6729C160.934 101.421 159.154 103.201 157.409 105.016C150.424 112.278 144.009 120.054 138.147 128.247C137.804 128.726 138.231 129.303 138.664 129.302C138.659 129.35 138.66 129.4 138.667 129.454C138.926 131.352 140.663 131.449 141.993 130.397C143.611 129.117 144.908 127.142 146.261 125.602C148.035 123.582 149.809 121.562 151.583 119.542C155.131 115.503 158.679 111.462 162.227 107.423C163.832 105.596 165.436 103.77 167.04 101.943C167.805 101.071 169.426 99.7552 169.594 98.4514Z" fill="#141010"/>
<path d="M165.707 101.576C164.509 102.941 163.311 104.304 162.113 105.669C159.793 108.31 157.473 110.951 155.153 113.593C152.834 116.234 150.513 118.875 148.193 121.517L144.918 125.245C144.236 126.022 143.553 126.799 142.871 127.576C142.724 127.744 140.092 130.718 139.906 129.36C139.856 128.992 139.559 128.817 139.267 128.814C143.046 123.549 147.041 118.448 151.289 113.553C153.446 111.067 155.666 108.635 157.942 106.257C159.147 104.997 160.367 103.753 161.604 102.525C162.594 101.542 164.116 99.4059 165.362 98.8899C165.717 98.3107 166.178 98.3131 166.745 98.8966C167.8 98.9851 167.987 99.2717 167.306 99.757C167.196 100.272 166.064 101.171 165.707 101.576Z" fill="#FFFDF0"/>
<path d="M226.166 88.016C226.16 87.948 226.135 87.8958 226.113 87.8411C226.042 86.5387 225.971 85.237 225.899 83.9349C227.262 81.7081 227.612 79.1283 226.969 76.6062C228.643 75.173 231.704 72.0471 230.117 69.9856C228.732 68.1848 226.388 69.8508 224.646 71.363C224.765 70.9177 224.884 70.4724 224.992 70.0249C225.21 69.124 225.391 68.1653 224.961 67.294C224.417 66.192 223.113 65.868 222.266 66.5356C222.098 65.9857 221.74 65.5373 221.09 65.3901C219.119 64.9433 217.958 67.4852 217.304 69.8112C217.015 67.8048 216.264 65.741 214.435 66.1473C212.06 66.6749 212.518 70.8562 212.98 72.997C212.165 72.9633 211.339 73.2542 210.868 73.9506C210.046 75.1684 210.834 76.6833 211.41 77.8208C212.242 79.4624 213.29 80.9434 214.497 82.3265C214.999 82.9015 213.989 86.6539 213.844 87.4192C213.496 89.2647 213.01 91.1077 212.21 92.8128C210.9 95.6074 208.652 97.5944 205.614 98.2812C201.843 99.1331 198.261 97.663 194.664 96.6575C192.724 96.1155 190.785 95.5729 188.846 95.0308C187.979 94.7881 184.079 93.106 183.464 93.9115C183.272 94.1629 183.248 94.5013 183.231 94.8173C183.068 97.9496 183.196 101.088 183.367 104.217C183.464 106.002 182.803 111.594 184.748 112.257C194.602 115.611 205.48 119.487 215.571 114.714C225.97 109.793 227.134 98.25 226.166 88.016Z" fill="#141010"/>
<path d="M184.407 95.0726C188.682 96.2692 192.952 97.4816 197.232 98.658C199.24 99.2102 201.361 99.7777 203.471 99.8415C202.194 105.107 202.253 110.439 203.624 115.702C197.269 115.419 190.912 113.163 184.98 110.996C184.789 105.688 184.598 100.38 184.407 95.0726Z" fill="#FFDC5F"/>
<path d="M213.53 114.23C210.684 115.3 207.791 115.732 204.891 115.726C204.887 115.711 204.892 115.698 204.888 115.682C203.448 110.402 203.427 105.086 204.751 99.81C205.479 99.7532 206.203 99.6265 206.918 99.4002C213.991 97.1577 215.192 88.8187 215.721 82.531C215.735 82.3599 215.682 82.2207 215.6 82.1063C215.636 81.9208 215.6 81.7183 215.446 81.5454C214.105 80.031 212.919 78.3062 212.121 76.4419C211.943 76.0253 211.632 75.4146 211.769 74.9669C212.004 74.1929 213.024 74.1046 213.631 74.4018C214.607 74.8789 215.025 76.1537 215.376 77.0827C215.528 77.4876 215.939 77.548 216.241 77.4062C217.022 77.6035 217.803 77.8001 218.584 77.9974C219.359 78.1927 219.585 76.9721 218.81 76.7765C217.989 76.5694 217.168 76.362 216.347 76.1549C215.915 75.0726 215.346 73.9537 214.329 73.3754C214.325 73.348 214.332 73.324 214.324 73.2955C214.015 72.1643 213.205 68.0147 214.732 67.6167C216.186 67.2377 216.26 71.9 216.215 72.8917C216.194 73.3508 216.596 73.5037 216.948 73.4067C217.286 73.6002 217.796 73.508 217.878 73.0117C218.063 71.8968 218.313 70.7998 218.703 69.7364C218.905 69.1842 219.137 68.6315 219.4 68.1051C219.751 67.4043 219.74 66.7474 220.602 67.3016C221.322 67.7648 221.12 67.8021 220.974 68.5966C220.889 69.0585 220.8 69.5199 220.712 69.9813C220.521 70.9969 220.329 72.0126 220.137 73.0282C219.989 73.8119 221.211 74.0437 221.359 73.2561C221.678 71.5705 222.226 69.7646 222.357 68.0298C222.562 68.0308 222.765 67.9414 222.884 67.704C223.729 67.726 224.089 68.0301 223.965 68.6156C223.975 68.8748 223.943 69.1294 223.871 69.3794C223.787 69.8232 223.649 70.2698 223.535 70.7062C223.346 71.4293 223.148 72.1496 222.948 72.8694L222.947 72.8703C222.674 73.0895 222.663 73.4085 222.78 73.6594C222.844 74.232 223.827 74.339 224.019 73.6579C224.025 73.6323 224.033 73.6061 224.04 73.5808L225.795 72.1703C226.209 71.8382 227.768 70.2698 228.355 70.49C228.644 70.8356 228.932 71.1817 229.221 71.5272C229.162 71.774 229.074 72.0084 228.954 72.2297C228.743 72.6814 228.457 73.117 228.166 73.5221C227.513 74.4323 226.732 75.2208 225.86 75.9222C225.543 76.1771 225.571 76.5702 225.755 76.8288C226.354 79.0309 226.03 81.2234 224.907 83.1748C224.758 83.2729 224.655 83.4316 224.651 83.6526C224.581 83.8151 224.592 83.9629 224.665 84.0866L224.971 89.6835C224.978 89.8089 225.021 89.9045 225.078 89.9872C225.709 99.8165 223.922 110.321 213.53 114.23Z" fill="#FFFDF0"/>
<path d="M187.19 94.9969C183.6 92.671 179.301 92.1959 175.127 92.0161C172.451 91.9007 169.331 90.8736 166.646 91.8151C163.295 92.9899 162.656 96.9599 161.459 99.8622C157.661 109.078 155.636 119.015 155.583 128.988C155.525 139.953 156.863 153.987 168.018 159.36C173.38 161.943 179.559 162 185.245 160.574C189.664 159.466 194.516 157.414 194.875 152.248C195.082 149.253 194.051 146.206 193.524 143.286C192.83 139.434 192.339 135.544 192.053 131.641C191.51 124.217 192.04 116.957 192.569 109.558C192.968 103.97 192.267 98.2853 187.19 94.9969Z" fill="#141010"/>
<path d="M191.384 108.828C190.693 120.332 190.184 131.363 192.186 142.813C192.609 145.227 193.272 147.627 193.551 150.062C194.022 154.169 191.992 156.847 188.261 158.333C182.517 160.621 175.71 161.067 169.89 158.819C158.068 154.254 156.764 139.857 156.823 128.885C156.857 122.47 157.797 116.082 159.491 109.9C160.359 106.735 161.42 103.624 162.638 100.577C163.291 98.9469 163.603 97.193 164.306 95.58C164.683 94.7141 165.238 93.887 166.051 93.4052C167.276 92.6795 168.686 92.9661 170.023 93.079C171.426 93.1977 172.854 93.1518 174.26 93.1983C177.077 93.2915 179.916 93.4808 182.631 94.2912C189.588 96.3697 191.791 102.069 191.384 108.828Z" fill="#FFDC5F"/>
<path d="M190.856 129.548C190.711 125.418 190.778 121.297 190.948 117.142C179.994 117.811 169.024 117.291 158.17 115.586C157.32 119.966 156.847 124.417 156.824 128.884C156.823 129.015 156.824 129.149 156.823 129.282C165.72 130.213 174.676 130.471 183.613 129.97C185.734 129.851 188.392 129.927 190.856 129.548Z" fill="#FFFDF0"/>
<path d="M188.953 196.038C188.032 193.853 186.454 192.095 184.18 190.42C182.413 189.12 180.106 188.324 178.573 190.397C176.947 192.595 177.361 196.453 177.473 198.999C177.615 202.239 178.126 205.464 178.962 208.598C179.488 210.575 180.125 214.472 182.633 214.998C184.253 215.339 185.455 214.119 186.329 212.921C188.875 209.431 190.105 204.976 189.919 200.674C189.842 198.91 189.523 197.392 188.953 196.038Z" fill="#141010"/>
<path d="M184.897 212.763C181.405 215.172 180.266 208.808 179.887 207.217C179.044 203.675 178.614 200.028 178.674 196.388C178.719 193.629 178.677 188.649 183.61 191.665C185.33 192.716 186.788 194.681 187.952 196.28C188.928 200.131 188.854 204.161 187.499 207.925C187.011 209.279 186.135 211.909 184.897 212.763Z" fill="#141010"/>
<path d="M129.403 226.193C129.759 223.068 129.76 219.834 128.699 216.833C127.503 213.451 124.708 210.425 121.1 209.68C119.542 209.358 118.027 209.636 116.517 210.044C115.813 210.234 115.015 210.386 114.647 211.089C114.263 211.823 114.335 212.721 114.223 213.519C114.071 214.595 113.922 215.674 113.831 216.757C113.649 218.908 113.663 221.077 113.884 223.225C114.16 225.921 114.763 228.584 115.691 231.132C116.607 233.649 118.017 236.705 120.888 237.403C123.097 237.94 125.271 236.824 126.662 235.136C128.656 232.715 129.061 229.2 129.403 226.193Z" fill="#141010"/>
<path d="M125.947 233.944C119.961 242.171 115.829 228.478 115.235 224.159C114.932 221.953 114.861 219.718 115.013 217.498C115.089 216.381 115.221 215.267 115.405 214.162C115.498 213.608 115.603 213.056 115.721 212.506C115.802 212.129 115.733 211.699 116.116 211.471C116.28 211.373 116.472 211.333 116.659 211.294C118.441 210.926 120.249 210.518 122.016 211.211C123.706 211.872 125.095 213.148 126.115 214.626C126.641 215.388 127.076 216.213 127.419 217.072C127.588 217.495 127.735 217.928 127.857 218.367C127.927 218.62 128.266 219.456 128.151 219.692C128.831 223.819 128.475 230.471 125.947 233.944Z" fill="#141010"/>
<path d="M216.878 181.572C216.303 176.796 214.527 172.23 212.394 167.911C209.92 162.903 206.945 158.151 203.619 153.664C201.956 151.42 200.204 149.241 198.38 147.124C197.445 146.039 196.492 144.969 195.521 143.916C194.807 143.141 193.913 141.809 192.862 141.507C192.309 141.348 191.722 141.508 191.168 141.661C184.617 143.472 177.825 144.411 171.026 144.466C167.592 144.494 164.156 144.296 160.747 143.872C159.56 143.724 157.215 142.791 156.667 144.035C156.084 145.357 156.224 147.532 155.98 148.981C153.765 162.125 148.523 174.718 140.935 185.664C134.372 195.132 126.034 203.389 116.378 209.697C116.002 209.943 115.603 210.211 115.44 210.628C115.227 211.171 115.479 211.775 115.729 212.304C117.112 215.231 118.538 218.184 120.625 220.66C122.712 223.137 125.562 225.126 128.776 225.526C134.005 226.175 138.756 222.634 142.607 219.047C156.456 206.145 167.068 190.081 175.405 173.093C176.017 171.845 176.934 170.395 178.324 170.476C178.84 170.507 179.314 170.76 179.763 171.017C183.429 173.116 186.705 175.892 189.377 179.162C190.877 180.997 192.247 183.414 191.396 185.622C190.671 187.501 188.747 188.246 186.899 188.551C185.351 188.807 181.804 187.845 181.472 189.899C181.037 192.589 182.43 196.458 183.445 198.912C184.076 200.437 184.855 201.901 185.77 203.276C186.134 203.822 188.239 207.191 188.908 207.097C193.541 206.447 198.214 205.787 202.611 204.195C207.009 202.603 211.169 199.987 213.802 196.127C216.585 192.047 217.444 186.866 216.92 181.952C216.908 181.825 216.893 181.699 216.878 181.572Z" fill="#141010"/>
<path d="M210.414 198.111C204.752 203.433 196.82 204.911 189.346 205.569C189.222 205.579 189.128 205.625 189.046 205.682C185.189 201.245 183.032 195.79 182.75 189.928C187.158 190.112 193.765 189.159 192.899 183.277C192.494 180.524 190.267 178.138 188.423 176.213C185.863 173.54 182.909 171.365 179.682 169.587C181.214 169.126 182.845 169.041 184.482 169.377C185.265 169.537 185.494 168.317 184.709 168.156C174.541 166.065 171.85 177.887 167.858 184.687C162.393 193.996 156.041 202.786 148.881 210.866C144.605 215.691 139.787 221.674 133.408 223.717C124.468 226.581 119.545 217.952 116.652 210.965C139.477 196.381 154.876 171.609 157.814 144.684C169.523 146.513 181.384 145.83 192.796 142.689C202.642 152.357 210.987 164.69 214.792 178.04C216.87 185.331 216.175 192.695 210.414 198.111Z" fill="#FFFDF0"/>
<path d="M189.831 173.451C188.424 172.01 186.854 170.403 185.11 169.09C184.999 169.296 184.782 169.437 184.483 169.377C182.845 169.041 181.215 169.126 179.682 169.587C182.91 171.365 185.863 173.54 188.424 176.213C190.267 178.138 192.495 180.524 192.9 183.277C193.765 189.159 187.159 190.112 182.751 189.928C182.83 191.571 183.061 193.182 183.431 194.748C189.912 193.41 198.978 191.222 196.926 183.572C195.871 179.639 192.596 176.284 189.831 173.451Z" fill="#D0CECE"/>
<path d="M180.28 168.168C180.811 165.651 181.172 163.119 181.369 160.584C181.439 160.59 181.511 160.592 181.59 160.571C184.863 159.722 184.764 155.931 184.778 153.145C184.793 150.259 184.389 147.42 183.648 144.659C183.237 144.723 182.826 144.786 182.414 144.845C182.819 146.309 183.134 147.797 183.315 149.322C183.6 151.719 184.526 158.144 181.455 159.309C181.719 154.557 181.388 149.798 180.49 145.095C180.084 145.143 179.678 145.189 179.272 145.232C180.738 152.839 180.647 160.6 179.001 168.226C178.972 168.361 178.994 168.472 179.036 168.572C179.433 168.407 179.849 168.274 180.28 168.168Z" fill="#141010"/>
<path d="M120.178 210.626C120.019 210.049 119.889 209.457 119.781 208.857C119.406 209.12 119.034 209.386 118.655 209.643C120.042 216.392 124.652 221.756 130.803 224.242C131.574 224.18 132.381 224.025 133.223 223.769C127.287 222.091 122.584 217.67 120.555 211.846C120.611 211.826 120.669 211.809 120.726 211.768C142.386 195.972 156.699 171.437 160.137 145.013C159.731 144.961 159.326 144.9 158.92 144.843C155.555 170.852 141.444 195.055 120.178 210.626Z" fill="#141010"/>
<path d="M190.387 205.468C190.872 205.42 191.358 205.368 191.846 205.312C188.268 200.889 186.155 195.541 185.729 189.856C185.312 189.895 184.897 189.921 184.489 189.935C184.901 195.61 186.949 200.972 190.387 205.468Z" fill="#141010"/>
<path d="M166.276 139.882C166.234 139.167 166.128 138.476 165.97 137.808C165.98 137.702 165.956 137.597 165.892 137.497C165.774 137.051 165.622 136.622 165.455 136.2C166.317 135.669 167.006 134.875 167.359 133.986C176.322 128.745 181.646 119.714 185.346 110.282C186.727 106.761 188.27 103.3 189.031 99.5724C189.382 97.8532 189.849 95.4952 188.955 93.8514C188.144 92.3617 184.866 91.2446 184.435 93.5481C183.152 100.41 181.135 106.969 177.845 113.155C176.221 116.208 174.346 119.126 172.246 121.873C171.156 123.298 170.005 124.677 168.798 126.005C168.365 126.481 165.794 129.744 165.237 129.625C163.862 129.313 162.324 129.994 161.885 131.436C161.404 131.051 160.897 130.687 160.348 130.363C158.632 129.352 156.737 128.666 154.815 128.163C150.714 127.089 146.521 127.075 142.447 125.728C140.978 125.242 139.534 124.906 138.114 125.772C136.56 126.72 135.492 128.37 134.643 129.933C132.826 133.278 131.884 136.96 130.649 140.534C130.603 140.666 130.556 140.8 130.508 140.932C129.381 144.006 127.498 147.736 128.418 151.105C129.399 154.694 133.14 155.722 136.266 156.825C140.659 158.375 145.076 160.295 149.61 161.391C152.747 162.149 155.972 161.983 158.527 159.84C161.411 157.421 162.829 153.507 164.137 150.1C165.379 146.862 166.487 143.396 166.276 139.882ZM164.936 135.084C164.41 134.094 163.743 133.188 162.942 132.38C162.961 132.329 162.985 132.282 162.992 132.219C163.147 130.568 165.189 130.288 166.028 131.614C166.368 132.15 166.428 132.706 166.313 133.229C166.247 133.327 166.221 133.438 166.229 133.548C166 134.166 165.52 134.713 164.936 135.084Z" fill="#141010"/>
<path d="M133.679 135.756C134.352 133.704 134.974 131.639 136.025 129.731C136.666 128.568 137.496 127.303 138.72 126.687C140.137 125.974 141.492 126.724 142.851 127.203C145.088 127.991 147.264 128.157 149.592 128.451C151.615 128.707 153.632 129.081 155.582 129.688C159.172 130.805 162.727 132.842 164.235 136.463C164.24 136.476 164.243 136.49 164.248 136.503C160.346 135.258 158.068 142.028 154.944 143.315C151.903 144.568 147.709 143.622 144.622 142.962C141.495 142.293 132.574 140.606 133.673 135.952C133.69 135.88 133.684 135.818 133.679 135.756Z" fill="#FFFDF0"/>
<path d="M129.44 149.49C129.278 145.915 131.328 141.925 132.691 138.521C133.918 141.216 138 142.7 141.499 143.566C139.303 147.605 138.541 152.083 139.286 156.629C135.292 155.411 129.642 153.951 129.44 149.49Z" fill="#FFFDF0"/>
<path d="M153.202 160.6C149.059 160.796 144.636 158.47 140.811 157.12C140.74 157.096 140.667 157.071 140.594 157.046C140.595 157.004 140.592 156.96 140.583 156.913C139.748 152.328 140.479 147.91 142.752 143.855C143.801 144.084 144.753 144.262 145.489 144.4C148.296 144.925 151.712 145.514 154.543 144.739C155.812 144.391 156.877 143.784 157.805 142.855C159.255 141.403 161.566 135.922 164.74 138.127C164.993 139.267 165.078 140.444 165.01 141.61C164.79 145.382 163.326 149.016 161.842 152.451C160.18 156.299 157.905 160.376 153.202 160.6Z" fill="#FFFDF0"/>
<path d="M185.681 93.5978C190.972 93.1948 186.42 103.774 185.678 105.847C184.415 109.379 183.045 112.879 181.37 116.239C178.143 122.712 173.731 128.506 167.595 132.389C167.532 131.745 167.269 131.102 166.748 130.513C166.645 130.398 166.536 130.296 166.421 130.202C176.7 120.443 183.455 107.604 185.681 93.5978Z" fill="#FFFDF0"/>
<path d="M156.089 133.416C155.403 132.63 154.578 132.023 153.957 131.172C153.172 130.098 152.71 128.901 152.476 127.605C152.505 127.581 152.536 127.569 152.563 127.537C153.566 126.363 155.519 126.81 156.396 125.401C156.984 124.459 156.713 123.311 155.696 122.811C153.444 121.703 150.298 123.351 148.6 124.901C145.209 124.555 143.745 120.782 145.152 117.879C146.373 115.361 149.061 113.88 151.612 113.056C155.18 111.903 159.008 111.747 162.457 110.194C165.853 108.664 168.022 105.746 168.832 102.151C169.226 100.4 169.332 98.5917 169.304 96.8004C169.28 95.2667 169.247 93.6964 169.126 92.1677C169.043 91.1084 168.117 91.5528 167.401 91.6167C166.874 91.6637 166.347 91.7152 165.821 91.7715C163.8 91.9861 161.785 92.264 159.782 92.6067C155.776 93.2924 151.815 94.2397 147.937 95.4566C147.549 95.5787 147.161 95.7032 146.774 95.8308C144.606 96.5452 142.379 97.3325 140.207 98.2626C140.114 98.2808 140.029 98.3174 139.954 98.3717C135.768 100.19 131.807 102.561 128.909 106.041C125.269 110.411 123.59 116.455 126.018 121.817C128.928 128.245 135.653 131.35 141.802 133.943C141.499 135.845 141.32 137.886 142.369 139.599C143.284 141.094 144.952 141.821 146.645 141.357C146.899 141.288 147.015 141.112 147.042 140.917C148.45 141.395 150.116 141.116 151.304 139.718C152.307 139.679 153.307 139.267 154.08 138.392C155.118 138.521 156.225 138.144 156.814 137.243C157.656 135.958 156.996 134.456 156.089 133.416Z" fill="#141010"/>
<path d="M150.277 96.0449C156.005 94.3824 161.875 93.3443 167.811 92.8312C168.453 99.196 168.498 106.307 161.609 109.219C157.379 111.007 152.52 110.807 148.442 113.029C147.886 113.331 147.341 113.687 146.823 114.085C143.55 109.707 141.574 104.673 141.02 99.237C144.041 97.9453 147.202 96.9375 150.277 96.0449Z" fill="#FFDC5F"/>
<path d="M154.337 137.103C154.192 136.953 153.998 136.877 153.809 136.921C153.223 136.675 152.679 136.3 152.429 135.988C151.881 135.303 151.571 134.45 151.248 133.645C150.951 132.904 149.775 133.305 150.074 134.049C150.659 135.509 151.36 137.087 152.737 137.916C151.09 139.118 148.634 138.376 148.306 136.019C148.197 135.231 146.956 135.318 147.067 136.112C147.3 137.79 148.402 138.969 149.734 139.464C147.825 140.688 145.135 139.19 145.614 136.596C145.758 135.812 144.537 135.58 144.391 136.368C144.082 138.044 144.763 139.429 145.846 140.268C144.137 140.552 143.308 139.192 143.043 137.703C142.899 136.9 142.904 136.084 142.934 135.273C142.957 134.652 143.425 133.613 142.943 133.071C142.512 132.587 141.073 132.289 140.459 132.022C138.683 131.247 136.923 130.425 135.242 129.456C131.88 127.518 128.826 124.919 127.19 121.328C124.139 114.636 128.015 107.576 133.423 103.508C135.39 102.028 137.561 100.808 139.831 99.7643C140.467 105.287 142.512 110.445 145.875 114.898C144.294 116.416 143.185 118.401 143.338 120.661C143.438 122.158 144.074 123.618 145.167 124.659C145.927 125.382 146.995 126.09 148.093 126.16C149.554 126.254 150.423 124.876 151.656 124.329C152.537 123.939 153.507 123.712 154.475 123.791C155.209 123.852 155.928 124.353 155.048 125.05C154.667 125.352 154.089 125.432 153.633 125.56C152.837 125.785 152.175 126.077 151.63 126.715C151.567 126.789 151.527 126.865 151.504 126.943C151.298 127.032 151.152 127.23 151.2 127.527C151.507 129.41 152.231 131.152 153.509 132.591C154.233 133.407 155.642 134.23 155.864 135.342C156.207 137.067 155.316 137.35 154.337 137.103Z" fill="#FFFDF0"/>
<path d="M188.772 64.8442C188.445 64.5987 187.87 64.6618 187.766 65.1874C186.687 70.6583 187.587 76.1192 190.326 80.9789C190.566 81.4043 191.201 81.299 191.401 80.9064C193.131 77.5098 196.834 63.6216 188.772 64.8442Z" fill="#141010"/>
<path d="M188.874 66.0806C194.797 65.2118 192.335 75.1782 190.789 79.1945C188.771 75.102 188.121 70.5933 188.874 66.0806Z" fill="#141010"/>
<path d="M162.511 83.917C162.86 85.7171 164.768 87.0536 166.583 86.7325C171.098 85.9341 169.69 78.9158 165.267 79.8147C163.471 80.1795 162.161 82.113 162.511 83.917Z" fill="#141010"/>
<path d="M165.52 81.0306C168.49 80.4325 169.203 85.0638 166.332 85.5158C165.186 85.6961 163.931 84.8111 163.729 83.6672C163.527 82.5199 164.374 81.2617 165.52 81.0306Z" fill="#FFFDF0"/>
<path d="M186.272 84.1424C186.622 85.9425 188.529 87.279 190.344 86.9579C194.86 86.1595 193.451 79.1412 189.028 80.04C187.232 80.4052 185.923 82.3387 186.272 84.1424Z" fill="#141010"/>
<path d="M189.282 81.2563C192.251 80.6581 192.965 85.2895 190.094 85.7415C188.948 85.9217 187.693 85.0368 187.491 83.8929C187.289 82.7456 188.136 81.487 189.282 81.2563Z" fill="#FFFDF0"/>
<path d="M172.225 89.7351C171.715 94.0676 172.33 101.036 178.122 101.187C179.917 101.234 181.772 100.332 182.521 98.6407C183.497 96.4362 182.346 93.9841 182.491 91.6806C187.496 89.2327 190.624 84.2839 191.453 78.8183C192.231 73.6919 190.895 68.6208 188.877 63.9312C187.08 59.7554 184.533 55.0204 179.376 54.8496C175.099 54.7083 170.706 57.1166 167.99 60.3147C160.762 68.822 161.809 84.0661 172.225 89.7351Z" fill="#141010"/>
<path d="M167.247 63.4559C169.874 59.1031 176.532 54.2197 181.853 56.4703C184.863 57.7436 186.231 61.3251 187.444 64.1116C188.872 67.3927 189.871 70.9431 190.153 74.4563C190.418 77.7657 190.067 81.2088 188.566 84.209C187.819 85.7012 186.8 87.0442 185.563 88.1636C184.456 89.1649 182.826 89.6275 181.797 90.558C179.205 92.9005 184.214 99.6661 178.425 99.9198C175.845 100.033 174.306 98.2374 173.698 95.9013C173.4 94.7555 173.314 93.5535 173.313 92.3738C173.312 91.6481 173.814 89.6657 173.425 89.1021C173.333 88.9692 173.191 88.8806 173.054 88.7965C170.882 87.463 169.106 85.7341 167.748 83.7553C163.731 77.9063 163.37 69.8793 167.247 63.4559Z" fill="#FFFDF0"/>
<path d="M189.464 70.162C188.979 68.0936 188.29 66.0548 187.444 64.1116C186.231 61.3253 184.863 57.7435 181.853 56.4702C176.532 54.2197 169.874 59.103 167.247 63.4558C164.046 68.7603 163.742 75.1552 165.992 80.5168C166.076 80.4405 166.143 80.3377 166.173 80.1975C167.066 76.2108 167.959 72.2242 168.852 68.2375C170.015 69.7426 171.572 71.1101 173.578 70.5383C174.551 70.2612 175.19 69.584 175.428 68.7603C177.692 70.9109 180.878 72.6133 183.994 72.0593C185.794 71.7388 187.09 70.4264 186.894 68.8025C187.711 69.1167 188.59 69.7635 189.464 70.162Z" fill="#D0CECE"/>
<path d="M179.881 90.767C180.39 90.8903 180.903 90.9624 181.416 91.0121C180.561 92.3824 181.237 94.6404 181.35 96.5416C179.882 96.6892 178.604 95.6024 177.789 94.4104C177.088 93.3843 175.829 91.3074 177.606 90.5456C178.343 90.2308 179.162 90.5931 179.881 90.767Z" fill="#D0CECE"/>
<path d="M173.211 76.0553C174.67 75.4817 174.657 78.3296 174.345 79.0594C174.135 79.5506 173.465 79.6304 173.199 79.135C172.842 78.4706 172.142 76.5374 173.141 76.0843C173.165 76.0738 173.188 76.0644 173.211 76.0553Z" fill="#141010"/>
<path d="M182.537 75.8119C184.071 75.4873 183.588 78.293 183.158 78.9618C182.87 79.4112 182.196 79.3792 182.016 78.8472C181.774 78.1331 181.403 76.1111 182.464 75.8301C182.489 75.8229 182.513 75.8168 182.537 75.8119Z" fill="#141010"/>
<path d="M174.562 81.8892C175.274 83.0556 176.638 83.5739 177.951 83.2737C178.733 83.0954 178.981 84.3121 178.203 84.4899C176.316 84.9206 174.447 84.0753 173.448 82.4386C173.032 81.7554 174.148 81.2107 174.562 81.8892Z" fill="#141010"/>
<path d="M179.975 76.0836C179.752 75.3144 178.578 75.7214 178.801 76.4876C178.903 76.8389 179.597 80.2649 178.713 80.1367C177.924 80.0219 177.691 81.2417 178.486 81.3569C181.128 81.7408 180.382 77.4818 179.975 76.0836Z" fill="#141010"/>
<path d="M168.057 60.5438C168.013 59.968 167.348 59.8349 166.971 60.1797C162.004 64.7237 160.458 71.9748 163.393 78.0834C163.568 78.4473 165.565 82.1742 166.092 80.3133C167.921 73.8489 168.572 67.2416 168.057 60.5438Z" fill="#141010"/>
<path d="M166.891 62.0167C167.188 67.6917 166.621 73.2957 165.202 78.7952C161.887 73.2982 162.611 66.7108 166.891 62.0167Z" fill="#141010"/>
<path d="M195.016 62.4028C194.199 60.8532 193.104 59.5404 191.813 58.419C193.069 58.5916 194.358 58.6692 195.108 57.6142C195.721 56.7516 195.453 55.8198 194.81 55.0883C193.515 53.6178 190.85 53.0434 189.022 52.5366C186.654 51.88 184.249 51.6142 181.819 51.6352C182.18 51.1851 182.347 50.6354 182.094 49.9645C181.404 48.1308 178.529 48.9373 177.146 49.2975C171.13 50.864 167.15 56.1334 166.729 62.2287C166.705 62.5637 166.916 62.7907 167.167 62.8893C167.975 65.516 169.941 68.2808 172.62 69.1345C173.418 69.389 174.258 69.272 174.621 68.4587C174.896 67.8431 174.68 67.0335 174.357 66.2528C175.607 67.244 176.94 68.1179 178.384 68.8389C179.876 69.5838 182.43 70.9509 184.183 70.5543C186.463 70.039 185.84 68.2923 184.871 66.7567C186.773 67.8119 188.796 68.6074 190.957 69.0404C192.537 69.3569 194.571 69.6288 195.689 68.1866C196.982 66.5197 195.859 64.0032 195.016 62.4028Z" fill="#141010"/>
<path d="M192.032 67.9764C191.188 67.8614 190.323 67.6486 189.506 67.4087C188.105 66.9977 186.757 66.4149 185.482 65.7056C184.899 65.3818 184.402 64.8851 183.772 64.6478C183.216 64.4389 181.794 64.5578 182.425 65.4599C182.737 65.9065 184.278 67.5418 184.234 68.0482C184.033 70.3495 180.616 68.5059 179.747 68.1157C177.426 67.0728 175.381 65.6326 173.521 63.9061C173.167 63.5781 172.736 63.7875 172.571 64.122C172.347 64.2532 172.204 64.4995 172.329 64.8144C172.569 65.4156 173.251 66.471 173.251 67.1286C173.251 68.6476 171.496 67.1127 170.972 66.6532C169.519 65.3793 168.612 63.7229 168.166 61.8594C168.14 61.7508 168.092 61.6708 168.034 61.6061C168.425 58.4074 169.765 55.474 172.237 53.2974C173.435 52.2414 174.761 51.455 176.261 50.8843C176.95 50.6216 177.635 50.4595 178.36 50.3255C178.774 50.2207 179.194 50.1594 179.62 50.1403C180.516 49.9266 180.514 50.4494 179.612 51.7079C178.933 52.0232 179.252 53.0897 179.902 52.9221C179.951 52.9302 179.996 52.9458 180.052 52.9422C183.014 52.7434 185.929 52.96 188.794 53.76C189.182 53.8681 192.917 54.7576 193.077 55.4014C193.55 57.3072 191.086 57.0027 189.9 56.9807C189.53 56.7414 189.21 56.978 189.1 57.3069C188.906 57.6663 189.073 58.1982 189.552 58.2266C191.963 59.8658 196.138 64.0621 194.508 67.0242C193.859 68.2036 193.269 68.1447 192.032 67.9764Z" fill="#141010"/>
</g>
</g>
<g clip-path="url(#clip2_2_2)">
<path d="M54.3411 111.169C54.3289 110.893 54.5823 110.722 54.7775 110.744C59.0991 111.241 63.4254 111.542 67.7481 111.717C72.0874 111.892 76.4239 111.939 80.7569 111.933C81.582 111.932 82.4067 111.928 83.2312 111.923C83.644 111.921 84.0568 111.918 84.469 111.915C84.997 111.912 85.7128 111.759 86.2278 111.954C86.9184 112.216 87.0812 114.148 87.2261 114.864C87.4696 116.062 87.6094 117.283 87.6838 118.503C87.8354 120.978 87.7206 123.445 87.6056 125.9C87.5687 126.686 87.5313 127.473 87.503 128.261C87.2794 134.493 86.9322 140.719 87.0692 146.986C87.142 150.307 87.3524 153.648 87.8067 156.954C88.2626 160.274 89.0432 163.632 91.3706 165.827C95.7162 169.924 101.21 167.986 105.236 165.033C105.519 164.825 105.908 165.162 105.963 165.525C106.341 168.004 107.997 170.295 107.21 172.837C106.542 174.992 104.62 176.621 103.083 177.76C99.3744 180.506 94.6952 181.469 90.3072 180.087C86.0848 178.757 82.1784 175.541 79.5522 171.188C76.6829 166.432 75.1318 160.745 73.6455 155.248C73.6466 162.034 73.9807 168.76 75.0354 175.576C75.9211 181.303 77.0099 187.042 78.8012 192.519C80.0404 196.307 83.4288 201.388 78.5442 202.709C77.0713 203.107 74.3817 203.249 73.3599 201.367C72.1555 199.148 71.4423 196.285 70.625 193.848C69.8085 191.414 68.921 188.945 68.3038 186.428C60.2237 162.29 55.4766 136.769 54.3411 111.169Z" fill="#141010"/>
<path d="M66.9802 179.061C68.2098 183.126 69.5079 187.164 70.8495 191.183C71.386 192.79 72.0141 195.861 72.9138 198.298C73.4393 199.722 74.0576 200.929 74.8049 201.502C76.384 202.712 78.6892 200.525 80.0844 199.905C77.8862 191.992 75.3296 184.5 74.0369 176.265C73.4122 172.285 72.9828 168.271 72.7783 164.254C72.6768 162.256 72.6294 160.257 72.6424 158.263C72.6529 156.664 73.2639 153.823 72.86 152.326C72.0366 149.274 71.2153 146.22 70.393 143.168C69.8751 141.245 69.4659 139.214 68.8234 137.342C68.1491 135.376 65.9348 134.896 64.3933 134.116C63.7113 133.77 64.0825 132.496 64.7671 132.844C65.6004 133.267 66.4331 133.69 67.2664 134.113C67.7938 134.381 68.8568 134.665 69.2688 135.153C69.9076 135.908 70.0788 137.744 70.3391 138.715C71.0412 141.33 71.7426 143.944 72.4447 146.559C73.8589 151.828 75.0462 157.214 76.7169 162.39C77.7032 165.445 78.9188 168.43 80.5685 171.071C84.1638 176.827 89.8909 180.092 95.6232 179.534C98.6479 179.24 101.559 177.906 103.919 175.704C105.213 174.496 106.854 172.872 106.458 170.563C106.218 169.161 105.544 167.923 105.161 166.561C101.576 169.061 97.3039 170.478 93.1319 168.364C88.2726 165.901 87.1231 160.092 86.565 154.383C85.8982 147.564 86.0866 140.738 86.3605 133.962C86.5026 130.452 86.6682 126.945 86.7466 123.427C86.8284 119.779 86.9778 116.013 85.7788 112.515C85.759 112.523 85.7414 112.534 85.7164 112.536C75.636 113.443 65.3289 112.876 55.1762 111.778C55.1037 111.77 56.8432 131.376 57.0718 133.166C58.0014 140.452 59.2189 147.702 60.7204 154.882C62.4294 163.055 64.5758 171.111 66.9802 179.061Z" fill="#FFFDF0"/>
<path d="M62.2736 161.783C61.7248 159.492 61.2033 157.192 60.7202 154.882C59.2186 147.702 58.0012 140.452 57.0715 133.166C56.9998 132.604 56.7792 130.286 56.5124 127.37C58.6454 124.717 61.6746 122.841 64.8375 121.815C72.61 119.294 81.2959 122.221 86.5867 128.438C86.5152 130.28 86.4346 132.12 86.3603 133.962C86.0863 140.738 85.898 147.564 86.5648 154.383C86.7295 156.068 86.947 157.762 87.2951 159.376C84.7877 160.589 81.9726 161.257 79.3227 161.777C78.4416 161.95 77.5516 162.084 76.6576 162.199C75.0192 157.082 73.842 151.764 72.445 146.559C71.7429 143.944 71.0415 141.33 70.3394 138.715C70.0791 137.744 69.9079 135.908 69.2691 135.153C68.8566 134.665 67.7936 134.381 67.2667 134.113C66.4334 133.69 65.6007 133.267 64.7674 132.844C64.0828 132.496 63.7111 133.77 64.3936 134.116C65.9351 134.896 68.1494 135.376 68.8237 137.342C69.4662 139.214 69.8749 141.245 70.3933 143.168C71.2156 146.22 72.0369 149.274 72.8603 152.326C73.2642 153.823 72.6532 156.664 72.6426 158.263C72.6334 159.683 72.6562 161.107 72.706 162.529C70.1286 162.629 67.5413 162.52 65.0025 162.208C64.0881 162.097 63.179 161.95 62.2736 161.783Z" fill="#D0CECE"/>
<path d="M54.218 121.629C53.9198 114.266 53.6303 106.903 53.3436 99.539C53.1955 95.7346 52.9382 91.914 52.9334 88.1081C52.9301 85.4857 53.1595 82.7129 54.4069 80.4238C55.7705 77.9211 58.021 77.0541 60.6181 76.6244C64.7928 75.9328 69.0326 75.4668 73.2576 75.2852C76.7121 75.1457 80.4087 75.7511 83.0082 78.2917C84.7024 79.9475 85.4908 82.2059 85.9876 84.5461C86.706 87.9307 87.225 91.3828 87.746 94.8051C88.786 101.64 89.6054 108.527 89.7346 115.444C89.8418 121.166 90.2134 128.568 87.0012 133.422C80.9916 142.505 67.2153 144.085 59.5204 136.427C55.448 132.375 54.4495 127.351 54.218 121.629Z" fill="#141010"/>
<path d="M56.8999 130.665C61.7722 141.635 75.224 142.435 83.2959 135.71C87.9759 131.812 88.3732 126.031 88.5993 120.038C88.826 114.035 88.4449 108.016 87.7453 102.045C87.3447 98.6264 86.8068 95.2268 86.2267 91.8359C85.7064 88.7937 85.3767 85.5176 84.3573 82.6074C83.0431 78.8564 79.4049 76.962 75.7486 76.5126C72.9585 76.1694 70.1223 76.8791 67.3358 77.0083C63.8456 77.1702 59.5925 76.8534 56.7725 79.3831C53.0295 82.7417 54.1457 89.7178 54.3252 94.3423C54.5678 100.595 54.8136 106.848 55.0491 113.101C55.1589 116.02 55.2638 118.939 55.3785 121.857C55.498 124.876 55.6623 127.878 56.8999 130.665Z" fill="#141010"/>
<path d="M50.9759 148.687C50.9851 148.626 50.9956 148.562 51.0074 148.496C51.4598 146.008 51.8313 143.537 52.1974 141.031C52.5926 138.326 52.9679 135.617 53.313 132.902C53.9731 127.718 54.6935 122.581 54.9982 117.346C55.1105 115.422 56.3926 116.009 57.7457 116.022C59.2533 116.037 60.7613 116.047 62.2685 116.056C65.1524 116.073 68.0365 116.084 70.9205 116.105C73.8522 116.127 76.7878 116.273 79.7155 116.132C81.238 116.059 82.7577 115.91 84.2556 115.623C84.8724 115.505 85.4637 115.227 86.0715 115.065C86.8145 114.867 88 114.627 88.522 115.462C88.8407 115.971 88.806 117.076 88.8967 117.678C89.0353 118.601 89.1746 119.525 89.3132 120.448C89.8736 124.24 90.4158 128.046 91.1134 131.803C91.6455 134.671 92.2872 137.514 92.9403 140.353C93.2748 141.806 93.6131 143.258 93.9414 144.714C94.1627 145.692 94.8832 146.752 94.7321 147.79C94.5625 148.954 93.3331 149.525 92.4273 149.887C89.9473 150.876 87.4664 151.929 84.8991 152.642C80.4707 153.871 75.8855 154.427 71.3036 154.545C67.5943 154.641 63.846 154.387 60.1749 153.68C58.2961 153.319 56.4221 152.832 54.6395 152.053C53.7722 151.674 52.8578 151.422 52.0337 150.924C51.0637 150.336 50.8159 149.761 50.9759 148.687Z" fill="#141010"/>
<path d="M72.399 153.512C79.9473 153.154 86.8214 150.95 93.7641 147.994C92.2503 142.897 91.2502 137.549 90.2723 132.317C89.2349 126.765 88.3804 121.175 87.8098 115.553C87.7861 115.567 87.76 115.58 87.7307 115.591C82.7213 117.358 77.3873 117.081 72.1592 117.034C66.7109 116.984 61.2615 116.902 55.8138 116.877C55.522 122.4 54.868 127.905 54.187 133.377C53.8492 136.093 53.4831 138.803 53.0809 141.507C52.845 143.092 52.7127 144.696 52.445 146.276C52.315 147.042 51.8247 147.904 51.9127 148.701C52.0179 149.654 52.8042 149.868 53.5137 150.238C55.4752 151.26 57.5242 152.018 59.6368 152.536C63.8259 153.565 68.1461 153.713 72.399 153.512Z" fill="#FFDC5F"/>
<path d="M91.2654 61.5607C89.3238 59.4411 90.8942 56.9605 91.5468 54.7009C91.6342 54.3977 91.7136 54.0782 91.6557 53.7673C91.5464 53.1806 90.9783 52.7965 90.4149 52.652C89.3016 52.3671 88.1506 52.4994 87.0277 52.3411C85.1887 52.0818 82.9919 50.9148 83.3536 48.6493C83.4815 47.8479 83.9535 47.1066 83.9147 46.2957C83.8622 45.1984 82.6999 44.3629 81.6579 44.4357C80.8087 44.4947 80.4165 46.073 79.3196 46.2719C78.4032 46.4387 77.4475 46.0101 76.7268 45.4591C75.187 44.2825 74.2187 41.9367 75.8897 40.4153C75.9124 40.3945 75.9388 40.3828 75.965 40.3705C76.2655 40.0946 76.6409 39.9377 77.0531 39.8815C77.0231 39.8023 77.0303 39.7108 77.1021 39.6432C79.2781 37.5882 82.2755 36.6479 85.2062 37.0462C86.5658 37.2313 88.0644 37.7793 88.6758 39.1554C88.9075 39.6769 88.8495 40.3032 89.076 40.8091C89.8502 42.5419 91.8125 41.7152 93.152 41.6228C95.9879 41.4275 100.016 41.8235 101.844 44.3927C102.481 45.2889 102.696 46.3242 102.54 47.4144C102.396 48.4208 101.539 49.6736 102.225 50.6299C103.11 51.8646 103.892 52.4408 103.849 54.178C103.771 57.3093 102.115 60.3526 99.4619 61.9293C97.0083 63.388 93.3895 63.8792 91.2654 61.5607Z" fill="#141010"/>
<path d="M76.4572 40.7033C76.448 40.74 76.4323 40.7773 76.4045 40.8154C75.7178 41.7559 75.509 42.8708 76.1328 43.9226C76.8794 45.1808 78.8418 46.2581 80.0393 45.0866C82.5018 42.6797 78.3074 39.5899 76.4572 40.7033Z" fill="#FFDC5F"/>
<path d="M95.7471 62.3737C99.2931 62.106 102.163 59.273 102.952 55.7599C103.182 54.7341 103.156 53.6017 102.768 52.619C102.373 51.6203 101.25 51.0295 101.197 49.9089C101.116 48.1934 102.423 46.9083 101.439 45.1721C99.5223 41.7918 94.3416 42.3201 91.1927 42.6301C90.2488 42.723 89.3235 42.7083 88.7178 41.8468C87.7571 40.4801 88.4919 39.0304 86.5697 38.1676C83.6348 36.851 80.0763 38.0751 77.5829 39.8625C79.4317 39.9685 81.6578 41.7586 81.362 43.8978C82.464 43.9016 83.7073 44.1235 84.2749 45.1903C85.0722 46.6885 83.5756 48.1203 83.9929 49.6432C84.9944 53.2987 92.1506 50.0854 92.3503 53.87C92.4276 55.3275 91.319 56.7821 91.0725 58.2005C90.5658 61.1117 93.2892 62.5594 95.7471 62.3737Z" fill="#141010"/>
<path d="M53.4567 66.2732C53.3715 64.9812 53.7344 63.2117 54.9787 62.5769C55.1783 62.4752 55.3841 62.4173 55.5864 62.3969C54.5351 59.8341 53.9073 56.9768 53.8632 54.2032C53.8385 52.6545 54.2242 49.52 55.9371 48.8084C54.7528 46.9865 55.3704 44.0007 57.937 44.4864C61.7296 38.8025 70.0236 38.0053 75.3963 41.5875C75.5331 41.6785 75.6641 41.7745 75.796 41.8693C78.567 43.4238 80.9645 46.4604 82.039 49.3661C83.5344 53.4077 82.7587 57.7343 81.9795 61.8437C81.9598 61.9476 81.9157 62.0225 81.8575 62.0742C82.9103 62.8135 83.2224 64.2681 83.0512 65.5245C82.7144 67.9985 79.9136 70.1522 77.8747 68.5175C76.6977 70.3267 75.054 71.6936 75.1706 74.1568C75.2341 75.5013 75.6134 76.6924 74.0506 77.0211C72.6061 77.3252 71.1378 77.474 69.671 77.6107C69.0297 77.6707 66.1733 78.3502 65.8181 77.77C65.7321 77.6291 65.7113 77.4575 65.6933 77.2922C65.5495 75.9963 65.4732 74.6864 64.9105 73.4915C64.2195 71.995 63.0423 71.4961 61.6482 70.9166C60.5436 70.4575 59.6093 69.8054 58.848 68.9588C56.7128 71.5618 53.6393 69.0387 53.4567 66.2732Z" fill="#141010"/>
<path d="M59.6024 68.6825C61.2096 70.3294 63.7431 70.2642 65.1364 72.1795C66.1373 73.5554 66.3859 75.3324 66.5383 77.0129C66.5346 76.9714 73.5922 76.0813 74.2325 75.9789C74.1139 75.9979 74.1777 72.1886 74.3534 71.789C74.9983 70.3224 76.5233 69.4366 77.4228 68.0723C77.3837 68.0265 77.3441 67.9819 77.3054 67.9326C77.1642 67.7496 77.1803 67.4952 77.3307 67.3231C77.7748 66.8132 78.2703 67.6412 78.5912 67.8781C79.0962 68.2504 79.7936 68.2346 80.3576 68.0289C81.1154 67.7525 81.7475 67.1166 82.0587 66.357C82.4125 65.4921 82.5213 64.388 82.1098 63.5177C81.9219 63.1208 81.5761 62.838 81.1901 62.6614C80.3287 62.2673 78.9635 62.3087 78.4192 63.2307C78.2772 63.4713 77.9045 63.3698 77.8549 63.1404C77.7729 63.146 77.6872 63.117 77.613 63.0383C76.3544 61.7095 75.3204 60.2628 74.4968 58.6104C74.0801 57.7739 73.7239 56.9075 73.4073 56.026C73.1505 55.3114 72.9519 53.721 72.4026 53.2736C71.9109 52.8735 70.6629 52.9928 70.0205 52.8869C69.0675 52.7301 68.1291 52.4976 67.2044 52.2145C65.7919 51.7824 64.4149 51.2387 63.0676 50.6264C63.4732 51.1579 63.8284 51.717 64.1304 52.3531C64.2226 52.547 64.149 52.8683 63.8991 52.8988C61.7794 53.1599 59.2064 52.0346 57.4026 50.451C57.1397 51.2333 56.9487 52.0662 56.8439 52.948C56.8379 52.9984 56.8189 53.0356 56.7958 53.0679C56.749 55.3336 56.7841 57.6001 56.9109 59.8633C57.0826 62.9199 57.3699 66.3945 59.6024 68.6825Z" fill="#FFFDF0"/>
<path d="M56.7945 53.0672C56.8177 53.0355 56.8367 52.9977 56.8426 52.9473C56.9475 52.0661 57.1385 51.2332 57.4013 50.4503C59.2051 52.034 61.7782 53.1598 63.8978 52.8982C64.1471 52.8678 64.2213 52.5463 64.1291 52.3524C63.8272 51.7169 63.4719 51.1572 63.0664 50.6258C64.4136 51.238 65.7906 51.7817 67.2031 52.2138C68.1277 52.4964 69.0661 52.7289 70.0192 52.8863C70.6616 52.9921 71.9096 52.8728 72.4013 53.273C72.9506 53.7204 73.1497 55.3107 73.406 56.0254C73.7226 56.9068 74.0788 57.7732 74.4955 58.6097C74.995 59.6122 75.5731 60.5374 76.231 61.4079C75.1939 60.8262 74.2094 60.1631 73.3362 59.3361C72.406 58.4555 71.8503 57.3794 71.0926 56.369C70.1529 55.1154 68.5091 55.3006 67.1259 54.883C66.6761 54.7471 66.2381 54.5847 65.8093 54.4033C65.8774 54.6523 65.939 54.9053 65.9889 55.1681C66.0855 55.6807 65.6889 56.2964 65.1649 56.3404C62.5298 56.5622 59.3666 55.6021 56.7845 53.9941C56.7872 53.6857 56.7881 53.3763 56.7945 53.0672Z" fill="#D0CECE"/>
<path d="M54.4544 67.7564C55.2324 69.4034 57.1917 69.973 58.4459 68.4853C58.4483 68.4826 58.451 68.4821 58.4528 68.4796C58.126 68.0493 57.8335 67.5805 57.5847 67.0624C57.0501 65.9481 56.7422 64.7549 56.5556 63.5348C55.399 62.9268 54.6633 63.1785 54.3516 64.2957C54.2011 64.7116 54.1103 65.1421 54.0794 65.5877C54.0302 66.3204 54.1408 67.0921 54.4544 67.7564Z" fill="#FFFDF0"/>
<path d="M67.7216 57.1833C67.7929 56.7413 68.521 56.837 68.5197 57.2572C69.0204 57.8286 68.9883 58.7018 68.6772 59.3562C68.5484 59.6276 68.0781 59.6302 67.9626 59.343C67.6779 58.6376 67.6005 57.9365 67.7216 57.1833Z" fill="#141010"/>
<path d="M60.1725 58.8569C60.1682 58.3552 60.831 58.2945 61.0213 58.6467C61.1955 58.8493 61.3029 59.1447 61.3737 59.3756C61.4952 59.7716 61.4703 60.1571 61.2859 60.5257C61.1458 60.8063 60.7204 60.7777 60.584 60.5127C60.3221 60.0024 60.1777 59.4352 60.1725 58.8569Z" fill="#141010"/>
<path d="M58.4604 55.4611C58.458 55.1063 58.8381 54.8167 59.1215 54.6681C59.4446 54.4982 59.8176 54.4281 60.1768 54.4039C60.425 54.3874 60.4733 54.821 60.2231 54.8566C59.9038 54.9026 59.6578 55.0285 59.4045 55.2318C59.1953 55.3993 59.0439 55.6574 58.7822 55.729C58.6137 55.7745 58.462 55.6308 58.4604 55.4611Z" fill="#141010"/>
<path d="M67.033 53.7433C67.2748 53.4697 67.7418 53.4715 68.0817 53.4688C68.4867 53.4661 68.8755 53.5502 69.2526 53.6976C69.5631 53.8185 69.4323 54.297 69.1045 54.2102C68.7657 54.1207 68.4142 54.0805 68.0638 54.1009C67.7496 54.1193 67.448 54.2748 67.1395 54.1917C66.9405 54.1376 66.9077 53.8856 67.033 53.7433Z" fill="#141010"/>
<path d="M62.2881 61.2596C62.3746 61.0174 62.5275 60.9245 62.7162 60.7712C63.4348 60.1869 63.1379 59.4846 62.763 58.7674C62.6063 58.4682 63.0454 58.2166 63.2106 58.5104C63.5149 59.0512 63.826 59.6466 63.7227 60.2939C63.6842 60.5356 63.5952 60.772 63.4437 60.9624C63.3841 61.037 63.2548 61.1004 63.214 61.1822C63.044 61.5229 63.1824 62.024 63.3586 62.3246C63.5218 62.6022 63.1938 62.8644 62.9459 62.7343C62.4674 62.4821 62.087 61.8254 62.2881 61.2596Z" fill="#141010"/>
<path d="M64.2758 63.7665C64.3 63.7267 64.3314 63.6909 64.3824 63.6676C65.0362 63.3721 65.6936 63.0963 66.3587 62.8278C66.7755 62.6601 67.2326 62.4248 67.6347 62.7426C68.0077 63.0373 68.1761 63.8114 68.2586 64.2587C68.3586 64.8003 68.3513 65.3619 68.1141 65.8665C67.6927 66.7625 66.7434 67.0439 65.8861 66.6616C64.8826 66.2136 64.1431 65.2167 63.9558 64.1155C63.9155 63.8858 64.1059 63.7469 64.2758 63.7665Z" fill="#141010"/>
<path d="M69.7381 198.101C68.9232 196.027 68.1605 193.93 67.4586 191.812C66.0022 187.418 64.8051 182.938 63.8255 178.407C63.7655 178.129 63.987 177.871 64.239 177.819C68.2119 177.006 72.0219 175.715 75.8025 174.236C76.094 174.122 76.6761 174.51 76.7498 174.756C78.3152 179.992 79.0915 185.531 80.453 190.838C81.1955 193.733 81.9951 196.612 82.8543 199.472C83.4239 201.369 84.6764 203.727 84.2291 205.756C84.1545 206.095 83.8444 206.232 83.5843 206.187C80.4869 207.753 76.4128 209.666 72.936 209.351C71.9666 209.263 70.3308 208.858 70.0458 207.705C69.7542 206.523 71.027 205.3 71.5425 204.38C72.1728 203.255 71.559 202.497 71.0722 201.357C70.6112 200.279 70.1671 199.193 69.7381 198.101Z" fill="#141010"/>
<path d="M73.0355 204.019C72.3801 204.888 70.4274 206.955 71.7131 207.947C72.6671 208.683 74.458 208.245 75.511 208.005C78.1915 207.395 80.7871 206.326 83.2623 205.115C83.3516 202.98 82.018 200.343 81.4445 198.386C80.6942 195.823 79.9871 193.246 79.3271 190.657C78.0326 185.581 76.4708 180.205 76.1102 174.955C76.1082 174.924 76.1153 174.896 76.1209 174.868C76.1098 174.875 76.1041 174.884 76.0918 174.89C72.5546 176.697 68.7733 177.888 64.9164 178.719C66.8088 187.246 69.5294 195.572 73.083 203.521C73.154 203.678 73.1398 203.881 73.0355 204.019Z" fill="#141010"/>
<path d="M76.7685 206.511C79.2057 205.97 81.0956 204.719 83.0806 203.368C83.2116 203.97 83.2859 204.559 83.2626 205.115C80.7876 206.326 78.1919 207.395 75.5114 208.005C74.4585 208.245 72.6675 208.683 71.7135 207.947C71.3616 207.675 71.2579 207.321 71.2982 206.936C73.1348 206.974 74.9756 206.908 76.7685 206.511Z" fill="#FFFDF0"/>
<path d="M86.2527 176.207C87.7706 172.555 89.5724 168.967 91.5481 165.48C91.5953 165.396 91.6692 165.35 91.7484 165.33C91.8462 165.277 91.9721 165.256 92.1179 165.291C94.1923 165.791 96.1327 166.554 98.3354 166.644C99.4746 166.692 100.607 166.578 101.71 166.265C102.908 165.924 103.612 165.277 104.681 164.753C106.953 163.639 110.087 166.81 111.267 168.188C112.892 170.086 114.525 173.114 114.109 175.654C113.724 178.005 110.64 177.346 109.167 176.304C109.037 176.51 108.858 176.707 108.692 176.876C108.667 176.915 108.638 176.953 108.598 176.989C108.557 177.027 108.515 177.062 108.474 177.098C108.261 177.315 108.001 177.567 107.711 177.74C102.719 181.679 95.7676 182.477 89.7197 180.706C88.5684 180.369 86.6647 179.939 85.962 178.97C85.3566 178.135 85.8981 177.06 86.2527 176.207Z" fill="#141010"/>
<path d="M90.7002 179.948C96.6496 181.432 103.306 180.393 107.946 176.272C108.025 176.202 108.107 176.164 108.188 176.146C108.395 175.891 108.609 175.625 108.889 175.518C108.896 175.516 108.903 175.515 108.909 175.512C109.121 175.303 109.523 175.206 109.806 175.448C110.69 176.206 112.651 176.843 112.985 175.199C113.097 174.646 112.866 173.913 112.742 173.383C112.491 172.316 112.061 171.294 111.494 170.341C110.545 168.748 107.369 164.814 104.895 165.867C103.917 166.283 103.185 166.913 102.1 167.223C101.028 167.53 99.9057 167.652 98.7979 167.639C96.4578 167.613 93.962 166.99 91.9069 166.075C90.7405 168.593 89.5528 171.105 88.4104 173.631C88.0658 174.393 87.7353 175.159 87.3926 175.922C87.1426 176.479 86.5532 177.307 86.5867 177.879C86.6594 179.123 89.642 179.684 90.7002 179.948Z" fill="#141010"/>
<path d="M104.923 165.855C107.392 164.85 110.545 168.755 111.49 170.341C112.057 171.293 112.487 172.316 112.737 173.383C112.861 173.913 113.093 174.646 112.981 175.199C112.871 175.741 112.582 176.032 112.215 176.156C111.096 171.941 108.472 168.331 104.923 165.855Z" fill="#FFFDF0"/>
<path d="M16.7735 79.8793C19.0158 78.4403 21.6723 79.6898 23.596 81.0787C26.4815 83.1616 29.1844 85.285 32.6726 86.1936C36.3508 87.1516 40.3208 86.8291 43.8118 85.2997C47.4407 83.7093 50.1702 80.6348 53.6013 78.6827C57.1293 76.676 61.0635 75.5444 65.0913 75.4045C65.3154 75.3965 65.4589 75.5688 65.4867 75.7472C65.5332 75.8362 65.5464 75.9459 65.5048 76.0682C61.5337 87.7594 61.2103 100.04 60.852 112.288C60.7213 116.747 61.5482 122.32 57.2736 125.012C53.5941 127.33 48.4371 126.12 44.853 124.092C42.7456 122.898 43.0387 120.64 44.2745 118.807C45.2115 117.418 46.2031 116.307 46.6968 114.639C47.2499 112.772 47.4822 110.765 47.777 108.842C48.155 106.373 48.4987 103.901 48.8879 101.44C42.3942 101.823 35.8009 101.087 29.6443 98.8675C24.0964 96.867 17.0553 93.6202 15.153 87.3469C14.417 84.9184 14.4077 81.3979 16.7735 79.8793Z" fill="#141010"/>
<path d="M19.9191 92.2819C22.3502 94.3769 25.392 95.8935 28.3477 97.0322C35.0111 99.6003 41.953 100.906 49.0684 100.322C49.7528 96.1717 50.6047 92.0611 52.0217 88.0736C52.1541 87.701 52.6983 87.9214 52.5778 88.2954C50.5904 94.4459 49.9493 100.909 49.0743 107.296C48.6986 110.037 48.4762 112.986 47.5516 115.606C46.7079 117.996 42.4235 122.139 46.3522 123.789C50.2535 125.426 55.5571 126.569 58.4966 122.579C60.0554 120.463 59.7087 117.329 59.786 114.817C59.8704 112.063 59.9316 109.309 60.0426 106.557C60.4558 96.3126 61.2037 85.9094 64.621 76.1977C61.5469 76.5898 58.564 77.3828 55.7435 78.7344C52.778 80.1554 50.4177 82.2931 47.7792 84.2194C43.343 87.4578 37.7149 88.6266 32.4179 87.2672C29.8238 86.6013 27.4428 85.2874 25.2402 83.7537C22.8498 82.0891 18.17 77.8753 16.2088 82.4494C14.7011 85.9649 17.4178 90.1263 19.9191 92.2819Z" fill="#FFFDF0"/>
<path d="M24.5397 95.3293C28.3446 96.0265 32.1969 96.4157 36.0883 96.4569C40.4212 96.5024 46.1324 96.5839 50.2376 94.2863C49.778 96.2821 49.4027 98.2975 49.0687 100.323C41.9532 100.906 35.0114 99.6005 28.348 97.0324C27.0755 96.542 25.789 95.9759 24.5397 95.3293Z" fill="#D0CECE"/>
<path d="M78.2028 118.51C77.796 115.568 77.3913 112.626 77.0099 109.68C75.5139 98.1259 74.2209 86.4537 74.872 74.7826C74.8771 74.688 74.9155 74.6191 74.9703 74.5737C74.9984 74.3502 75.1537 74.1563 75.4201 74.2033C83.1602 75.5618 87.814 81.2508 91.9021 87.5841C91.8161 87.4505 91.8556 87.0808 91.8317 86.9171C91.6762 85.8504 92.0021 84.7497 92.8614 84.0763C93.5497 83.2976 94.5453 82.7966 95.7118 82.6328C100.112 82.0153 102.91 86.5799 104.464 90.1083C107.006 95.8836 108.064 104.17 104.383 109.709C101.55 113.969 97.4223 113.79 93.421 111.924C94.2633 113.43 95.2073 114.803 96.5561 115.935C97.5712 116.786 98.7134 117.426 99.0099 118.844C99.8981 123.093 95.9445 124.631 92.5846 125.062C90.323 125.351 88.0468 125.306 85.7748 125.207C83.9472 125.127 81.9717 125.12 80.399 124.019C78.6472 122.793 78.4749 120.479 78.2028 118.51Z" fill="#141010"/>
<path d="M80.055 122.067C80.0965 122.135 80.1399 122.201 80.1846 122.264C81.423 124.026 83.7802 123.889 85.6538 124.016C88.4112 124.202 91.3327 124.318 94.0673 123.839C96.4154 123.428 98.3601 122.124 98.2578 119.434C98.1944 117.761 96.5974 117.11 95.5658 116.159C94.1691 114.873 93.0184 113.245 92.4074 111.416C88.7481 109.45 85.299 106.248 83.1765 103.961C82.7588 103.511 83.4428 102.846 83.8568 103.297C88.2779 108.115 99.3505 117.651 104.211 108.337C105.516 105.836 106.047 102.982 105.991 100.16C105.934 97.2552 105.287 94.3721 104.237 91.6817C103.758 90.4548 103.193 89.2638 102.544 88.1222C102.229 87.5685 101.899 87.0183 101.537 86.495C100.972 85.6763 100.463 84.9487 99.6478 84.3764C98.8773 83.8354 98.0072 83.421 97.0725 83.3141C96.0893 83.2015 95.0655 83.3593 94.2322 83.9341C93.5475 84.4064 92.9716 85.1438 92.7371 85.9629C92.4553 86.9461 92.7108 87.9741 92.8083 88.9634C92.9276 90.1696 93.0033 91.3904 93.0273 92.6027C93.0638 94.425 92.9896 96.2497 92.7924 98.0612C92.7507 98.4421 92.7041 98.8226 92.6512 99.2019C92.6043 99.5422 92.4741 99.9433 92.4861 100.285C92.4048 100.77 91.5944 100.631 91.6533 100.138C92.0893 96.5053 92.2524 92.9143 92.034 89.3039C91.9181 89.2799 91.8086 89.2116 91.7289 89.0838C89.8314 86.0333 87.8955 82.9563 85.376 80.4013C82.4752 77.4593 79.1766 76.4562 75.4422 75.1808C75.4331 85.7097 76.2646 96.1879 77.5916 106.624C77.9213 109.217 78.2785 111.806 78.6421 114.393C78.9539 116.614 78.8416 120.101 80.055 122.067Z" fill="#FFFDF0"/>
<path d="M90.1675 114.652C87.764 112.129 85.9991 109.1 84.9736 105.79C87.0142 107.754 89.6499 109.935 92.4059 111.416C93.0169 113.245 94.1676 114.873 95.5643 116.16C96.5959 117.109 98.1929 117.761 98.2563 119.434C98.2735 119.887 98.2282 120.298 98.1369 120.675C97.4862 120.074 96.7322 119.589 95.9886 119.122C93.8801 117.794 91.909 116.481 90.1675 114.652Z" fill="#D0CECE"/>
<path d="M93.1985 83.4214C92.8885 82.4866 92.4081 81.5748 92.1059 80.6261C91.5363 79.5569 91.4283 78.3522 91.6135 77.0974C91.7807 75.9638 92.1006 73.816 93.181 73.1714C93.5954 72.9245 94.0178 72.941 94.3834 73.1176C94.3992 71.2122 94.662 69.2972 95.0757 67.4465C95.3057 66.4184 95.5984 64.5849 96.9028 64.4375C98.895 64.2129 98.2761 68.6135 97.69 71.3663C98.3843 70.2939 99.19 69.2832 100.094 68.4279C100.776 67.7838 102.37 66.2239 103.427 66.6956C104.127 67.0089 104.158 67.8921 103.922 68.5154C103.615 69.3276 102.893 70.0643 102.392 70.7524C101.732 71.6583 101.06 72.5547 100.387 73.4508C101.28 73.6994 101.897 74.538 101.765 75.4521C105.024 76.069 102.561 84.9512 98.8067 85.4472C98.8024 85.4695 98.805 85.4895 98.7966 85.5136C98.2425 87.0562 95.7503 86.9475 94.6652 86.0617C93.8536 85.399 93.5203 84.393 93.1985 83.4214Z" fill="#141010"/>
<path d="M101.813 70.3615C102.199 69.8112 102.585 69.2614 102.97 68.7102C103.159 68.4391 103.427 67.6554 102.937 67.4846C102.42 67.3041 101.688 67.999 101.347 68.2901C100.537 68.982 99.8195 69.7901 99.1298 70.6054C98.3865 71.4841 97.8592 72.5227 97.2156 73.4776C96.9757 73.8338 96.4903 73.4843 96.6795 73.1144C96.7001 73.0734 96.7236 73.0326 96.7449 72.9921C96.9525 71.845 97.1279 70.6901 97.2478 69.5291C97.3118 68.9098 97.3546 68.2889 97.3779 67.6667C97.3893 67.4 97.3963 67.1334 97.3983 66.8665C97.5707 66.064 96.944 64.9081 96.0609 66.2294C95.8144 66.4622 95.772 67.3013 95.6912 67.6613C95.4994 68.5131 95.3487 69.3741 95.2382 70.2409C95.0938 71.3713 95.0473 72.5032 95.0048 73.6395C95.1118 73.7798 95.2035 73.9352 95.273 74.101C95.7767 75.2965 95.3437 76.8043 95.0188 78.0845C95.1873 78.1595 95.3484 78.2499 95.4967 78.3613C95.4219 77.146 95.9679 75.9447 96.76 75.0596C97.4936 74.2393 98.6039 73.3931 99.7486 73.3693C100.432 72.363 101.115 71.3572 101.813 70.3615Z" fill="#FFFDF0"/>
<path d="M97.4746 75.306C96.9769 75.8015 96.5563 76.3944 96.3416 77.079C96.2173 77.4752 95.9107 80.4932 97.4943 79.7103C97.6984 77.7482 99.2916 75.5798 101.192 75.4248C101.31 73.1206 98.3652 74.4189 97.4746 75.306Z" fill="#FFFDF0"/>
<path d="M94.616 84.8982C95.1187 85.5602 97.509 86.7532 98.0545 85.2552C98.0592 85.2425 98.0681 85.2359 98.0735 85.2242C98.0673 85.0786 98.1616 84.9221 98.3477 84.9181C101.146 84.8563 102.583 80.271 102.506 77.9553C102.404 74.8934 99.5237 76.7584 98.7583 78.2176C98.5089 78.6931 97.5952 80.8514 99.0171 80.8268C99.7432 80.8142 100.528 79.362 100.835 78.7759C101.091 78.2856 101.813 78.7677 101.541 79.2548C100.919 80.3675 97.8796 83.4126 97.5033 80.5881C97.5013 80.5754 97.5018 80.5611 97.5004 80.5483C96.829 80.699 96.2852 80.3541 95.9321 79.7947C95.8995 79.7978 95.8652 79.7938 95.8305 79.7808C95.5397 79.6691 95.4389 79.3703 95.251 79.1399C95.1308 78.9927 94.9984 78.8663 94.8522 78.758C94.7206 79.2026 94.0448 78.9534 94.1458 78.4792C94.3477 77.5291 94.6424 76.554 94.7055 75.5819C94.703 75.3567 94.7004 75.1315 94.6973 74.9064C94.7204 74.2899 94.38 73.755 93.8051 73.929C92.9026 74.2805 93.0226 74.6136 92.7582 75.3933C92.3512 76.5933 92.085 77.8115 92.2067 79.0048C92.22 79.0265 92.229 79.0523 92.2315 79.0825C92.2952 79.7347 92.5548 80.3926 92.8574 81.0428C92.8642 81.0541 92.8693 81.0658 92.876 81.0772C92.8806 81.085 92.8806 81.0924 92.8834 81.0998C93.22 81.8155 93.6048 82.522 93.842 83.1995C94.05 83.7959 94.2322 84.3927 94.616 84.8982Z" fill="#FFFDF0"/>
<path d="M5.20414 75.6469C5.41791 75.4417 5.70916 75.3435 6.05009 75.323C5.32965 74.5685 4.80285 73.678 4.48236 72.6335C4.2174 71.7713 3.93406 70.4092 4.92611 69.8923C5.39556 69.6477 5.86409 69.7191 6.27317 69.9477C6.05635 68.4774 6.05809 66.3583 7.66932 66.4461C7.84366 66.4554 7.98648 66.5068 8.11007 66.5801C8.14581 65.8644 8.32564 65.1481 8.96426 64.7663C9.70195 64.3256 10.508 64.6516 10.9814 65.3242C11.8525 66.5624 11.4113 68.4603 12.1163 69.8448C13.2715 72.1137 15.7579 73.2924 18.1449 73.4811C18.1599 73.1097 18.1776 72.7385 18.2008 72.367C18.2445 71.6595 18.202 70.5839 18.8227 70.0732C19.8193 69.2527 20.5905 70.4847 20.9447 71.3383C21.7951 73.3888 21.4854 75.8634 21.0269 77.9721C20.6856 79.5403 20.3051 82.0494 18.6506 82.6967C18.6365 82.7019 18.6246 82.6999 18.6109 82.7039C15.5241 84.7315 9.2115 80.9921 7.01633 79.3929C6.18885 78.7914 3.92981 76.8714 5.20414 75.6469Z" fill="#141010"/>
<path d="M9.73981 80.2232C12.1947 81.639 16.4148 83.6373 18.9443 81.5256C19.7298 80.5132 20.0447 78.5003 20.2166 77.5563C20.4486 76.2858 20.5795 74.9303 20.512 73.6348C20.4003 71.4896 19.5899 70.7215 19.1987 71.5029C18.9085 72.255 19.0487 74.8553 19.0011 76.0328C18.981 76.5238 18.1747 76.5564 18.1488 76.0543C18.1186 75.4717 18.1137 74.8882 18.1232 74.3052C16.0483 74.1451 14.0741 73.5154 12.6053 71.9127C11.8808 71.122 11.3083 70.1475 11.0007 69.1043C10.8808 68.6967 10.8101 68.2935 10.7551 67.8741C10.7334 67.4622 10.705 67.0503 10.6712 66.6393C10.645 66.3231 10.3216 65.8684 10.0667 65.6969C9.86231 65.559 9.624 65.5398 9.40351 65.649C9.17125 65.7641 9.00065 65.9912 8.88849 66.2246C8.64628 66.729 8.69959 67.3039 8.79471 67.8389C8.88818 68.3633 8.982 68.89 9.11005 69.406C9.37182 70.4636 9.81755 71.4999 10.7452 72.1059C10.7642 72.1181 10.7833 72.1309 10.8028 72.1424C11.2819 72.4412 10.7697 73.1618 10.2939 72.867C9.24083 72.2147 8.6851 71.0397 8.38299 69.8546C8.27188 69.4189 8.19559 68.9762 8.11384 68.5339C8.07485 68.3125 8.03369 68.0914 7.99039 67.8706C7.75577 67.7406 7.34128 67.5164 7.08975 67.7239C6.99876 67.7992 6.95676 67.9192 6.92453 68.0348C6.55501 69.369 7.06436 70.7352 7.7405 71.8676C8.06583 72.4123 8.4272 72.9579 8.86223 73.4162C9.35608 73.9365 9.92042 74.3775 10.4434 74.8651C10.7233 75.1257 10.5025 75.7283 10.0963 75.522C8.58673 74.7547 7.61015 73.2407 6.80416 71.7825C6.51937 71.2675 5.33377 69.5572 4.9784 71.2226C4.86729 71.7422 5.18068 72.5361 5.35609 73.0016C5.68704 73.8796 6.19943 74.6741 6.79972 75.3808C8.53127 75.7051 10.8881 77.2008 11.7056 77.667C12.1221 77.9045 11.7414 78.6011 11.3103 78.4155C10.5375 78.0828 9.83966 77.6781 9.09048 77.2916C8.60574 77.042 6.82494 75.9848 6.33069 76.2688C4.56252 77.2845 9.14005 79.8773 9.73981 80.2232Z" fill="#FFFDF0"/>
<path d="M5.18923 59.5131C5.0402 57.3837 6.6159 57.0636 8.36439 56.6366C9.59883 56.3348 12.8466 54.8825 13.896 56.1481C14.2873 56.62 14.6107 57.7117 14.7815 58.303C15.0402 59.1991 15.2784 60.06 15.5297 60.9585C16.0186 62.7033 16.4099 64.4596 16.7472 66.3158C17.3122 69.429 18.6685 72.8485 18.8241 76.0283C18.9231 78.0534 16.0167 78.0443 14.5881 78.4578C13.1997 78.8594 10.9918 80.2962 10.0841 78.7065C9.30271 77.3386 8.88747 75.3794 8.41047 73.8737C7.89524 72.2469 7.42249 70.6058 7.00221 68.9504C6.22854 65.9017 5.41025 62.6627 5.18923 59.5131Z" fill="#141010"/>
<path d="M14.751 77.6985C15.4531 77.4966 17.2817 77.3354 17.7429 76.8357C18.5096 76.0043 17.7468 73.832 17.5553 72.8883C17.3377 71.8166 17.1115 70.7463 16.8737 69.679C16.3796 67.4623 15.8461 65.2554 15.2973 63.0529C15.0232 61.9513 14.7453 60.8508 14.4669 59.7505C14.2722 58.9807 14.1717 57.4349 13.5723 56.8753C12.8604 56.2109 11.6402 56.5399 10.8102 56.7185C10.3704 56.8134 9.93014 56.9054 9.48989 56.9975C9.1914 57.0599 7.46688 57.2938 7.37486 57.6102C6.92532 59.1537 7.83626 61.6238 8.13664 63.1268C8.49231 64.9027 8.88651 66.6704 9.31894 68.4285C10.1535 71.8211 11.1359 75.17 12.2376 78.4798C13.076 78.306 13.9723 77.9221 14.751 77.6985Z" fill="#FFFDF0"/>
<path d="M14.6048 76.8247C15.2249 76.6461 16.8455 76.5215 17.2473 76.0595C17.9162 75.2914 17.2094 73.2445 17.0267 72.3574C16.8191 71.3494 16.6036 70.3438 16.3778 69.3399C15.9093 67.2553 15.4052 65.1795 14.8883 63.1069C14.6298 62.0703 14.3683 61.0354 14.1061 60C13.9228 59.2755 13.812 57.8258 13.2724 57.2921C12.6316 56.6591 11.5534 56.9493 10.8193 57.1053C10.43 57.1878 10.0409 57.2675 9.65173 57.3471C9.38727 57.401 7.86098 57.5953 7.78335 57.8906C7.40604 59.3306 8.24784 61.6587 8.53537 63.0724C8.87559 64.7422 9.24949 66.4048 9.65733 68.0583C10.4445 71.2502 11.362 74.4029 12.3853 77.5217C13.1266 77.3697 13.9165 77.0226 14.6048 76.8247Z" fill="#141010"/>
<path d="M8.47582 71.9621C8.77966 73.0167 9.10713 74.0635 9.45562 75.1034C9.64904 75.6807 9.84731 76.2572 10.0559 76.8291C10.4243 77.8373 10.3762 78.5977 11.5315 78.5711C10.2628 74.7148 9.16193 70.8052 8.26287 66.8401C7.83581 64.9573 7.43902 63.0632 7.11197 61.1593C6.93669 60.1391 6.61858 59.0425 6.79137 58.0227C5.76265 59.0549 6.06108 60.9454 6.29275 62.3268C6.47413 63.4108 6.67857 64.4904 6.9007 65.5665C7.34495 67.7187 7.86804 69.8522 8.47582 71.9621Z" fill="#FFFDF0"/>
</g>
<defs>
<linearGradient id="paint0_linear_2_2" x1="144.823" y1="215.562" x2="90.87" y2="31.6833" gradientUnits="userSpaceOnUse">
<stop stop-color="white" stop-opacity="0"/>
<stop offset="1" stop-color="#FFDC5F"/>
</linearGradient>
<clipPath id="clip0_2_2">
<rect width="171.269" height="246.929" fill="white" transform="matrix(-0.899086 -0.437771 -0.437771 0.899086 288.852 74.9766)"/>
</clipPath>
<clipPath id="clip1_2_2">
<rect width="116.243" height="198.782" fill="white" transform="translate(162.273 36.293) rotate(25.9618)"/>
</clipPath>
<clipPath id="clip2_2_2">
<rect width="101.384" height="168.945" fill="white" transform="matrix(-0.986618 0.163047 0.154243 0.988033 100.754 33.8286)"/>
</clipPath>
</defs>
</svg>
