<svg width="66" height="36" viewBox="0 0 66 36" fill="none" xmlns="http://www.w3.org/2000/svg">
<path d="M20.0638 3.89209L21.1707 4.03109L22.2776 4.72607L22.9695 5.83804L23.2462 6.95V8.33997L22.6927 8.89595H21.5858L21.0324 8.33997L20.7556 6.81101L20.4789 6.39402L20.0638 6.53302L19.9254 7.50599L20.4789 10.7029L20.894 12.3709L21.5858 11.5369L22.5544 11.3979L23.1078 11.6759L23.3846 12.2319L23.2462 13.2048L21.7242 15.2898L21.8625 16.6797L22.6927 21.6836L22.8311 23.0736V27.2434L22.416 30.1624L21.5858 32.6643L20.7556 34.0543L19.9254 35.0272L18.8185 35.7222L17.9883 36.0002H16.0512L14.6676 35.3052L13.699 34.3322L13.0072 33.0813L12.7305 31.6913V30.1624L13.1456 27.7994L14.6676 23.2126L15.9129 20.4326L17.7116 16.9577L18.9569 15.0118L17.7116 9.03495L17.5732 8.20097V6.53302L18.1267 5.14306L19.2336 4.17008L20.0638 3.89209ZM19.6487 18.2087L18.2651 20.7106L16.743 24.1855L15.3594 28.3554L15.0827 29.6064V31.9693L15.6361 33.0813L16.328 33.6373L16.6047 33.7763L17.85 33.6373L19.0952 32.5253L19.7871 30.9963L20.3405 28.9114L20.6173 26.4095V24.0465L20.3405 21.1276L19.7871 18.2087H19.6487Z" fill="#FFDC5F"/>
<path d="M6.22637 4.30908L7.47165 4.44808L8.16347 5.83804L10.7924 12.0929L12.3144 15.7068L12.4528 15.4288L13.1446 5.14306L13.8364 4.44808H14.805L15.3584 5.00406V7.92298L14.5283 20.7106L14.2515 21.9616L13.8364 22.2396H12.7295L12.1761 21.5446L10.3773 17.3747L8.30184 12.3709L7.88674 11.3979L7.74838 13.2048L7.61001 21.4056L7.19492 22.1006L6.91819 22.2396H5.94964L5.25781 21.5446V18.4867L5.39618 10.0079L5.53454 5.00406L6.22637 4.30908Z" fill="#FFDC5F"/>
<path d="M30.8553 4.30908H31.6855L32.3773 5.00406L34.7295 10.5639L36.6666 15.1508L36.9433 15.8458L37.2201 12.6488L37.6351 6.11603L37.9119 4.86507L38.327 4.44808H39.2955L39.9873 5.14306V6.81101L39.1572 20.0156L39.0188 21.5446L38.4653 22.2396H37.3584L36.805 21.6836L34.0377 15.1508L32.3773 11.1199L32.2389 19.1817L32.1006 21.6836L31.5471 22.2396H30.4402L29.8867 21.6836V15.8458L30.0251 7.089L30.1634 5.00406L30.8553 4.30908Z" fill="#FFDC5F"/>
<path d="M40.6801 0L50.9191 0.138996L57.4222 0.277992L58.1141 0.694981L58.3908 0.972973V1.94595L57.8373 2.50193L57.5606 2.64093H55.2084L49.9505 2.50193L49.5355 21.6834L49.1204 22.5174L48.8436 22.6564H47.7367L47.1833 21.9614V19.5985L47.46 6.67182L47.5983 2.36293H40.9568L40.1266 1.94595L39.9883 1.66795V0.555985L40.6801 0Z" fill="#FFDC5F"/>
<path d="M57.008 4.58691L57.8382 4.72591L58.3917 5.42089L60.6055 10.9807L61.9892 8.6178L63.7879 5.28189L64.4797 4.72591L65.4483 4.86491L65.8634 5.28189L66.0017 6.11587L64.8948 8.33981L63.5112 10.8417L61.8508 13.8997L62.2659 15.1506L64.4797 20.7105L64.3414 21.6834L63.9263 22.1004L63.0961 22.2394L62.2659 21.6834L60.3288 16.8186L59.9137 17.3746L58.115 20.7105L57.2848 21.9614L56.8697 22.2394L55.9011 22.1004L55.486 21.6834L55.3477 20.8495L56.4546 18.6255L57.8382 16.1236L59.0835 13.8997L58.6684 12.6487L57.008 8.47881L56.0395 5.97688L56.1778 5.1429L56.5929 4.72591L57.008 4.58691Z" fill="#FFDC5F"/>
<path d="M25.3218 9.31299H26.152L26.8438 9.86897V11.9539L26.7054 14.0389L26.567 21.1277L26.152 21.8226L25.8752 21.9616H24.9067L24.3532 21.4057L24.2148 21.1277V15.8458L24.6299 10.008L25.3218 9.31299Z" fill="#FFDC5F"/>
<path d="M1.10692 9.31299H1.93711L2.62893 10.008L2.49057 12.9269L2.21384 21.4057L1.66038 21.9616H0.691824L0 21.2667V14.7338L0.27673 10.564L0.553459 9.72998L1.10692 9.31299Z" fill="#FFDC5F"/>
<path d="M43.4468 9.31299H44.277L44.9688 10.008L44.8304 13.2049L44.692 16.1238L44.5537 21.4057L44.0002 21.9616H43.0317L42.3398 21.2667V14.7338L42.6166 10.7029L42.8933 9.72998L43.4468 9.31299Z" fill="#FFDC5F"/>
<path d="M52.5785 16.1235H53.5471L54.1006 16.5405L54.2389 16.9575V21.2664L53.5471 21.9614H52.5785L52.0251 21.4054L51.8867 20.9884V16.9575L52.3018 16.2625L52.5785 16.1235Z" fill="#FFDC5F"/>
<path d="M52.8553 9.86865L53.6855 10.0076L54.2389 10.7026V15.0115L53.8238 15.5675L52.8553 15.7065L52.1634 15.2895L52.0251 15.0115L51.8867 10.9806L52.1634 10.2856L52.8553 9.86865Z" fill="#FFDC5F"/>
<path d="M52.7175 4.58691H53.8244L54.3779 5.28189V8.20081L53.9628 8.89579L52.8559 9.03479L52.1641 8.47881V5.1429L52.7175 4.58691Z" fill="#FFDC5F"/>
<path d="M43.8598 4.58691H44.9667L45.5202 5.1429L45.6585 5.83788L45.3818 7.64483L44.8283 8.20081H43.8598L43.168 7.50583L43.3063 5.28189L43.8598 4.58691Z" fill="#FFDC5F"/>
<path d="M25.8732 4.58691H26.8417L27.5335 5.28189L27.3952 7.36684L26.9801 8.06182L26.7033 8.20081H25.7348L25.1813 7.64483L25.043 6.81085L25.3197 5.1429L25.8732 4.58691Z" fill="#FFDC5F"/>
<path d="M1.52386 4.58691H2.63077L3.18423 5.1429V6.81085L2.9075 7.78383L2.49241 8.20081H1.52386L0.832031 7.50583V6.25487L1.10876 5.0039L1.52386 4.58691Z" fill="#FFDC5F"/>
</svg>
